<?xml version="1.0" encoding="UTF-8"?>
<svg version="1.1" xmlns="http://www.w3.org/2000/svg" width="2586" height="776">
<path d="M0 0 C-1.30339246 7.51998584 -3.33540023 14.6359235 -5.71875 21.87890625 C-6.0890181 23.02028549 -6.45928619 24.16166473 -6.84077454 25.33763123 C-7.84662622 28.4363809 -8.8571275 31.53356886 -9.86932755 34.63024902 C-11.59109474 39.90539036 -13.2979949 45.18538039 -15.00745583 50.4645195 C-15.44931823 51.82880519 -15.89138583 53.19302443 -16.3336544 54.5571785 C-21.23674717 69.68066138 -26.03614675 84.83606258 -30.8125 100 C-31.18391113 101.17853546 -31.55532227 102.35707092 -31.93798828 103.57131958 C-33.66768638 109.06019549 -35.39623377 114.54943192 -37.12353516 120.0390625 C-39.74250866 128.36143197 -42.3708227 136.68084952 -45 145 C-44.14888641 144.99111755 -43.29777283 144.98223511 -42.42086792 144.9730835 C-34.38777809 144.89283231 -26.3548235 144.8319822 -18.32142448 144.79275131 C-14.19164765 144.77190394 -10.06220291 144.7436391 -5.93261719 144.69824219 C-1.94498571 144.65468167 2.04232696 144.63084145 6.03017807 144.62049103 C7.5492034 144.61311787 9.0682119 144.59871958 10.58710098 144.57707977 C12.72006761 144.54790825 14.85172827 144.54404946 16.98486328 144.54589844 C18.1973172 144.53701599 19.40977112 144.52813354 20.65896606 144.51898193 C24.68025407 145.09793809 26.84966883 146.48288594 30 149 C31.836368 152.672736 31.87233105 156.08914672 31 160 C28.50306944 164.10075246 25.27961609 167.51849386 22 171 C20.94090289 172.14146025 19.88232853 173.28340571 18.82421875 174.42578125 C17.15357532 176.2250118 15.48008786 178.02116879 13.79785156 179.80957031 C10.57247399 183.24909643 7.50558702 186.74905016 4.5625 190.4375 C-0.24327748 196.44250107 -5.51215165 201.97560777 -10.78125 207.5703125 C-14.73316017 211.76808922 -18.52345773 216.08290505 -22.25439453 220.47753906 C-28.79404337 228.17792447 -35.45091217 235.72408916 -42.33203125 243.12109375 C-46.5674635 247.6913918 -50.63526191 252.39164663 -54.66796875 257.140625 C-60.7416288 264.28110357 -66.94727772 271.25766781 -73.33203125 278.12109375 C-77.5674635 282.6913918 -81.63526191 287.39164663 -85.66796875 292.140625 C-91.21916343 298.66627531 -96.86145879 305.06258628 -102.71411133 311.31958008 C-105.7383702 314.57331665 -108.60000498 317.90240919 -111.375 321.375 C-116.2064614 327.39669368 -121.49211671 332.95437915 -126.78125 338.5703125 C-131.26098364 343.32875103 -135.54296142 348.22743444 -139.6953125 353.2734375 C-154.01929982 370.55416837 -170.47899763 381.74266474 -193 385 C-195.38173448 385.07871404 -197.76542442 385.10784007 -200.1484375 385.09765625 C-201.13452499 385.09553383 -201.13452499 385.09553383 -202.14053345 385.09336853 C-204.21873731 385.08781762 -206.29682927 385.07527465 -208.375 385.0625 C-209.79296718 385.05747864 -211.21093607 385.05291685 -212.62890625 385.04882812 C-216.08597322 385.03786437 -219.54297567 385.02063421 -223 385 C-222.38361699 379.28744872 -220.90725501 374.2052179 -219.04760742 368.78051758 C-218.74486908 367.88147202 -218.44213074 366.98242645 -218.13021851 366.05613708 C-217.12770374 363.08362916 -216.11658839 360.11412204 -215.10546875 357.14453125 C-214.39522291 355.04378174 -213.68554209 352.94284113 -212.97639465 350.84172058 C-211.10068465 345.28888232 -209.21779935 339.7385039 -207.33325195 334.18865967 C-205.46374094 328.67981661 -203.60005869 323.16900395 -201.73632812 317.65820312 C-201.00279053 315.48940586 -200.26923955 313.32061312 -199.53567505 311.15182495 C-199.17517185 310.08598049 -198.81466866 309.02013603 -198.44324112 307.92199326 C-197.36018699 304.72097624 -196.27625191 301.52025872 -195.19210815 298.3196106 C-189.06747405 280.23317287 -183.01254729 262.12398291 -177 244 C-177.91597458 244.00888245 -178.83194916 244.01776489 -179.77568054 244.0269165 C-188.4124481 244.10710069 -197.04909046 244.16798392 -205.68614483 244.20724869 C-210.12645549 244.2281139 -214.5664583 244.25641177 -219.0065918 244.30175781 C-223.29247369 244.34525406 -227.57805968 244.36914513 -231.86414528 244.37950897 C-233.49842804 244.3868936 -235.13269481 244.40131425 -236.76685143 244.42292023 C-239.05805694 244.45200559 -241.34804355 244.45595403 -243.6394043 244.45410156 C-245.59465279 244.46742523 -245.59465279 244.46742523 -247.58940125 244.48101807 C-251.56291437 243.92060867 -253.19395764 242.81161561 -256 240 C-257.34592977 236.95304409 -257.35805103 234.28694081 -257 231 C-253.6659245 224.97430556 -248.3000898 219.93519019 -243.5625 215 C-239.15674867 210.38230362 -234.84113919 205.71914346 -230.65893555 200.89746094 C-228.20282314 198.08820331 -225.66755078 195.35585617 -223.125 192.625 C-218.03091425 187.12956686 -212.99815902 181.58295277 -208 176 C-203.15529061 170.59662142 -198.28790925 165.21635577 -193.375 159.875 C-190.39781719 156.63782784 -187.44047144 153.38862271 -184.5625 150.0625 C-180.93787911 145.87890143 -177.16614933 141.8356539 -173.40258789 137.77758789 C-170.72598962 134.88635872 -168.07688821 131.98110596 -165.5 129 C-161.94316962 124.88795707 -158.24416316 120.9123038 -154.54956055 116.92456055 C-149.98389615 111.99335742 -145.48247674 107.00693471 -141 102 C-136.15529061 96.59662142 -131.28790925 91.21635577 -126.375 85.875 C-123.39781719 82.63782784 -120.44047144 79.38862271 -117.5625 76.0625 C-113.93787911 71.87890143 -110.16614933 67.8356539 -106.40258789 63.77758789 C-103.72598962 60.88635872 -101.07688821 57.98110596 -98.5 55 C-94.89917386 50.83433839 -91.14609026 46.81399952 -87.40234375 42.77734375 C-84.72584071 39.88618383 -82.07681276 36.98101868 -79.5 34 C-78.96503906 33.39027344 -78.43007813 32.78054687 -77.87890625 32.15234375 C-76.83524236 30.9567953 -75.79502903 29.75811637 -74.76904297 28.54736328 C-61.13439081 12.52579453 -43.77935229 1.8760419 -22.4296875 0.15234375 C-14.95849063 -0.17952035 -7.47645842 -0.06972863 0 0 Z M-72 82 C-73.84493185 84.08200711 -75.64844377 86.18320729 -77.4375 88.3125 C-82.11660625 93.83108678 -86.89055599 99.23043673 -91.77734375 104.56640625 C-95.86049757 109.037065 -99.81842379 113.61141889 -103.74609375 118.21875 C-104.7680638 119.41680775 -105.79020431 120.6147201 -106.8125 121.8125 C-107.32965576 122.41852051 -107.84681152 123.02454102 -108.37963867 123.64892578 C-111.5847653 127.39032262 -114.85193729 131.06098478 -118.1875 134.6875 C-121.35830742 138.14015696 -124.38035031 141.65530966 -127.3125 145.3125 C-131.38748445 150.36836567 -135.75231994 155.08187223 -140.20019531 159.80566406 C-144.23915745 164.11845414 -147.98932577 168.59820511 -151.68359375 173.2109375 C-155.35461455 177.63101988 -159.29269147 181.79595046 -163.2109375 185.99609375 C-165.98391453 188.97032028 -168.67756506 192.00544587 -171.33203125 195.0859375 C-172.60309144 196.54453116 -173.89629754 197.98385769 -175.19921875 199.4140625 C-175.93785156 200.22617187 -176.67648437 201.03828125 -177.4375 201.875 C-178.11683594 202.61492187 -178.79617188 203.35484375 -179.49609375 204.1171875 C-181.20803393 205.85882884 -181.20803393 205.85882884 -181 208 C-161.53 208 -142.06 208 -122 208 C-124.43375 214.72375 -126.8675 221.4475 -129.375 228.375 C-131.1531507 233.29684637 -131.1531507 233.29684637 -132.93084717 238.21885681 C-136.23529724 247.36903022 -139.54939548 256.51551597 -142.88473511 265.65447998 C-144.56374691 270.2580384 -146.23683013 274.86373894 -147.90899658 279.4697876 C-148.72037931 281.70022467 -149.53447218 283.92967771 -150.35125732 286.15814209 C-151.49369024 289.27613992 -152.626787 292.39738086 -153.7578125 295.51953125 C-154.10277771 296.45381454 -154.44774292 297.38809784 -154.80316162 298.35069275 C-155.10933411 299.20151932 -155.41550659 300.05234589 -155.73095703 300.92895508 C-156.00167023 301.67099686 -156.27238342 302.41303864 -156.55130005 303.17756653 C-157.22898876 305.08208578 -157.22898876 305.08208578 -156 307 C-150.69127755 301.31420941 -145.43335818 295.63316516 -140.5625 289.5625 C-136.71954521 284.78458662 -132.63168671 280.31005016 -128.44384766 275.83837891 C-124.52093146 271.62570895 -120.88088976 267.23586445 -117.27734375 262.74609375 C-114.33922549 259.20321701 -111.21768822 255.84558228 -108.08349609 252.47802734 C-105.11269934 249.26683127 -102.30031679 245.97363159 -99.5625 242.5625 C-95.71954521 237.78458662 -91.63168671 233.31005016 -87.44384766 228.83837891 C-83.52093146 224.62570895 -79.88088976 220.23586445 -76.27734375 215.74609375 C-73.78173138 212.73680474 -71.16226541 209.86069513 -68.5 207 C-64.14057891 202.31293975 -60.03010568 197.47750094 -56.015625 192.48828125 C-54.19742748 190.24372345 -52.33533938 188.05219424 -50.4375 185.875 C-47.89221912 183.50107743 -47.89221912 183.50107743 -48 182 C-68.13 182 -88.26 182 -109 182 C-106.195 174.760625 -103.39 167.52125 -100.5 160.0625 C-99.57251953 157.66806641 -98.64503906 155.27363281 -97.68945312 152.80664062 C-93.57367615 142.18598896 -89.44638488 131.57015247 -85.28125 120.96875 C-84.55011436 119.10539359 -83.81899418 117.24203111 -83.08789062 115.37866211 C-81.72631321 111.90900978 -80.35963907 108.44142272 -78.99023438 104.97485352 C-76.01045136 97.39996608 -73.08272755 89.88337173 -71 82 C-71.33 82 -71.66 82 -72 82 Z " fill="#53C18A" transform="translate(461,76)"/>
<path d="M0 0 C4.0945088 3.65072768 7.68593371 7.6254325 11 12 C11.61875 11.154375 12.2375 10.30875 12.875 9.4375 C21.78687249 -1.14690878 36.42873405 -7.1152092 50.0078125 -8.484375 C65.97962877 -9.66462475 81.64227423 -8.56880267 94.375 2.1875 C105.63798168 13.17973693 109.08989726 26.38505137 109.42245865 41.71466732 C109.47294348 47.53235902 109.45455561 53.34837551 109.40557575 59.16590381 C109.38028184 62.6852013 109.37819837 66.20451784 109.37347412 69.72389221 C109.36112542 76.36401527 109.32841588 83.00386957 109.28807616 89.64387518 C109.24310328 97.21356924 109.22130781 104.78327729 109.20129442 112.35307205 C109.15967411 127.9022294 109.08642571 143.45101731 109 159 C94.48 159 79.96 159 65 159 C64.97812622 154.0802124 64.97812622 154.0802124 64.95581055 149.06103516 C64.90539365 138.20441756 64.83878587 127.34794231 64.76428509 116.49146461 C64.7196254 109.91147724 64.68035933 103.33155115 64.65356445 96.75146484 C64.62748794 90.39711324 64.58705416 84.04299806 64.53681374 77.68879318 C64.52017453 75.26884281 64.50864197 72.84885157 64.50238609 70.42885208 C64.49271322 67.02995477 64.46461464 63.63165829 64.43237305 60.23291016 C64.43380814 59.24028168 64.43524323 58.2476532 64.4367218 57.22494507 C64.3358484 49.66794725 63.3998888 41.82928568 58.8125 35.5625 C54.27763063 31.43073013 50.15904574 30.24376323 44.125 29.5625 C36.03780059 29.94307409 29.57112901 33.83057076 23.69140625 39.12109375 C18.55795741 44.82360851 18.55739901 49.53812069 18.56762695 56.94067383 C18.5574353 58.04355743 18.54724365 59.14644104 18.53674316 60.28274536 C18.50657507 63.92422541 18.4973411 67.56544256 18.48828125 71.20703125 C18.47143745 73.73338193 18.45328762 76.25972421 18.43388367 78.78605652 C18.39120286 84.75347363 18.36168444 90.72081517 18.33856028 96.68832844 C18.31149102 103.48404279 18.26758066 110.27961589 18.22227156 117.07522929 C18.12947199 131.05009244 18.05999294 145.02495948 18 159 C3.15 159 -11.7 159 -27 159 C-27.01458252 155.75043457 -27.02916504 152.50086914 -27.04418945 149.15283203 C-27.09460832 138.39599843 -27.16121644 127.63930847 -27.23571491 116.88261604 C-27.28037293 110.36316294 -27.31963936 103.84377168 -27.34643555 97.32421875 C-27.37251373 91.02822069 -27.41294867 84.73246118 -27.46318626 78.43661118 C-27.47982435 76.03898977 -27.49135761 73.64132713 -27.49761391 71.24365616 C-27.50728802 67.87588967 -27.53538801 64.50872926 -27.56762695 61.14111328 C-27.56619186 60.15783554 -27.56475677 59.1745578 -27.5632782 58.16148376 C-27.68131666 49.39776781 -29.01669462 40.95242959 -35.26953125 34.40625 C-39.82853899 30.70141301 -45.19922581 29.43236817 -51.00390625 29.7265625 C-58.96290697 30.81683657 -64.71653907 35.04959331 -70 41 C-73.60117922 46.53510314 -73.44130141 51.58096981 -73.43237305 57.96240234 C-73.4425647 59.05567841 -73.45275635 60.14895447 -73.46325684 61.27536011 C-73.49338355 64.87893806 -73.50265258 68.48225016 -73.51171875 72.0859375 C-73.52856561 74.58843875 -73.54671586 77.09093155 -73.56611633 79.59341431 C-73.60876919 85.50057353 -73.63830364 91.40770551 -73.66143972 97.31496489 C-73.69118495 104.70355746 -73.74137498 112.0919877 -73.79101562 119.48046875 C-73.87705464 132.65359761 -73.94285114 145.8267141 -74 159 C-88.85 159 -103.7 159 -119 159 C-119 104.88 -119 50.76 -119 -5 C-106.79 -5 -94.58 -5 -82 -5 C-79.69 -0.38 -77.38 4.24 -75 9 C-74.030625 8.13375 -73.06125 7.2675 -72.0625 6.375 C-53.08059684 -9.7539117 -21.1549086 -16.36096882 0 0 Z " fill="#002827" transform="translate(1619,228)"/>
<path d="M0 0 C2.02050297 0.02378793 4.03969295 0.02050576 6.06030273 0.01391602 C13.37886579 0.0535928 20.22544401 0.50033664 27.32397461 2.33618164 C25.29890512 10.17921581 22.88661205 17.82159683 20.19897461 25.46118164 C19.65950195 27.0196582 19.65950195 27.0196582 19.10913086 28.60961914 C16.45449209 36.20566416 16.45449209 36.20566416 15.32397461 37.33618164 C13.9038467 37.37451294 12.48184178 37.34806151 11.06225586 37.29321289 C9.75417969 37.26130859 9.75417969 37.26130859 8.41967773 37.22875977 C6.58334619 37.17592496 4.74731583 37.11107564 2.91186523 37.03344727 C-2.79425584 36.92041332 -6.25253561 37.32564423 -10.67602539 41.33618164 C-14.46289808 47.41478634 -14.11315154 55.58169542 -14.67602539 62.33618164 C4.79397461 62.33618164 24.26397461 62.33618164 44.32397461 62.33618164 C44.32397461 57.38618164 44.32397461 52.43618164 44.32397461 47.33618164 C46.37091031 37.95439303 48.99515364 31.6585301 56.32397461 25.33618164 C61.4973547 22.09013923 66.36430153 21.20145972 72.40600586 21.23852539 C73.66634644 21.24227173 73.66634644 21.24227173 74.95214844 21.24609375 C76.00297607 21.25519775 77.05380371 21.26430176 78.13647461 21.27368164 C83.17928711 21.30461914 83.17928711 21.30461914 88.32397461 21.33618164 C88.32397461 34.86618164 88.32397461 48.39618164 88.32397461 62.33618164 C101.85397461 62.33618164 115.38397461 62.33618164 129.32397461 62.33618164 C125.94897461 73.58618164 125.94897461 73.58618164 124.49975586 77.90649414 C124.22301025 78.7342334 123.94626465 79.56197266 123.66113281 80.41479492 C123.153927 81.92275635 123.153927 81.92275635 122.63647461 83.46118164 C121.54334961 86.71993164 120.45022461 89.97868164 119.32397461 93.33618164 C109.09397461 93.33618164 98.86397461 93.33618164 88.32397461 93.33618164 C88.38692142 104.3153577 88.46235599 115.29425388 88.55968952 126.27318001 C88.60438951 131.37131287 88.64364656 136.46936588 88.67041016 141.56762695 C88.69644669 146.4890664 88.73685182 151.41019852 88.78716087 156.3314476 C88.80382717 158.20764209 88.81534293 160.08388974 88.82158852 161.96014786 C88.83123214 164.59119015 88.85929438 167.22144664 88.89160156 169.85229492 C88.89016647 170.62553604 88.88873138 171.39877716 88.88725281 172.19544983 C88.97057785 177.0033046 89.96283687 180.17686335 92.32397461 184.33618164 C92.32397461 184.99618164 92.32397461 185.65618164 92.32397461 186.33618164 C100.05897326 189.44853816 107.09894811 189.86947461 115.38647461 190.02368164 C116.63364258 190.0578418 117.88081055 190.09200195 119.16577148 190.12719727 C122.21841588 190.20906895 125.27079495 190.27841792 128.32397461 190.33618164 C126.24472702 198.31755323 123.82405848 206.14362417 121.19897461 213.96118164 C120.83932617 215.04786133 120.47967773 216.13454102 120.10913086 217.25415039 C119.59286133 218.7990918 119.59286133 218.7990918 119.06616211 220.37524414 C118.75533691 221.30546387 118.44451172 222.23568359 118.12426758 223.1940918 C117.32397461 225.33618164 117.32397461 225.33618164 116.32397461 226.33618164 C113.88221282 226.47470099 111.47090908 226.54937775 109.02709961 226.57446289 C108.28248474 226.58253464 107.53786987 226.59060638 106.77069092 226.59892273 C105.1834955 226.6127945 103.59626985 226.62350273 102.0090332 226.63134766 C99.62511365 226.64831761 97.24267211 226.69213841 94.85913086 226.73657227 C80.67912347 226.88154845 68.07160564 224.55258002 57.39428711 214.52368164 C43.68250438 199.92916612 43.87387821 180.98848802 44.03100586 162.18383789 C44.03661515 160.1874575 44.04087893 158.19107292 44.04386902 156.19468689 C44.05521295 150.99154857 44.08458766 145.7886696 44.11798096 140.58563232 C44.15436694 134.31535449 44.16789285 128.04498896 44.18534088 121.77463531 C44.21423318 112.29497151 44.27179281 102.81587445 44.32397461 93.33618164 C24.52397461 93.33618164 4.72397461 93.33618164 -15.67602539 93.33618164 C-15.62961914 101.23297852 -15.58321289 109.12977539 -15.53540039 117.26586914 C-15.51495397 122.27890318 -15.49569755 127.29188556 -15.48071289 132.30493164 C-15.45683351 140.25589221 -15.42863217 148.20664893 -15.37426758 156.1574707 C-15.33069685 162.57006986 -15.30686426 168.98247065 -15.29651642 175.39520645 C-15.28914527 177.83754726 -15.27475124 180.27987763 -15.25310516 182.72213364 C-15.22392293 186.15214965 -15.22007571 189.58135374 -15.22192383 193.01147461 C-15.20754272 194.01345383 -15.19316162 195.01543304 -15.17834473 196.04777527 C-15.22646954 204.34229824 -17.23978222 212.35149184 -22.86352539 218.71118164 C-23.62729492 219.6199707 -23.62729492 219.6199707 -24.40649414 220.54711914 C-35.73511984 229.47742993 -44.54090736 226.33618164 -59.67602539 226.33618164 C-59.67602539 182.44618164 -59.67602539 138.55618164 -59.67602539 93.33618164 C-67.59602539 93.33618164 -75.51602539 93.33618164 -83.67602539 93.33618164 C-83.67602539 83.10618164 -83.67602539 72.87618164 -83.67602539 62.33618164 C-75.42602539 62.33618164 -67.17602539 62.33618164 -58.67602539 62.33618164 C-58.75852539 59.13930664 -58.84102539 55.94243164 -58.92602539 52.64868164 C-59.03960314 38.046632 -55.6105705 26.12521622 -45.64477539 15.08618164 C-32.95531638 2.94843824 -17.05214599 -0.21416547 0 0 Z " fill="#002827" transform="translate(1049.676025390625,160.663818359375)"/>
<path d="M0 0 C14.85 0 29.7 0 45 0 C64.91943894 82.80795333 64.91943894 82.80795333 69.58618164 114.84667969 C69.78606768 116.97305187 69.78606768 116.97305187 71 118 C71.16435547 116.93362305 71.16435547 116.93362305 71.33203125 115.84570312 C74.33840416 96.67091006 78.41939389 77.95957805 83.41485596 59.20709229 C84.03015304 56.88626638 84.63668219 54.56327205 85.24169922 52.23974609 C86.306424 48.1568978 87.39005222 44.07947113 88.48696899 40.00515747 C88.90624661 38.44105364 89.3209206 36.87570713 89.7305603 35.30905151 C92.66748015 24.12249282 95.99557628 13.85001042 105 6 C105.78375 5.278125 106.5675 4.55625 107.375 3.8125 C114.26286055 -0.94340371 121.88533725 -0.24402003 129.9375 -0.125 C131.09830078 -0.11597656 132.25910156 -0.10695312 133.45507812 -0.09765625 C136.30360108 -0.07421162 139.15169078 -0.04139522 142 0 C144.00029519 5.75041969 145.71762824 11.48677313 147.11303711 17.41186523 C147.30212143 18.20046936 147.49120575 18.98907349 147.6860199 19.80157471 C148.30426908 22.38620498 148.91626819 24.97225869 149.52734375 27.55859375 C149.9618126 29.38918088 150.39634861 31.21975206 150.83094788 33.05030823 C151.74088039 36.88836844 152.6472079 40.72726079 153.55151367 44.56665039 C154.46714033 48.45170908 155.38937363 52.33509689 156.31811523 56.21704102 C161.37844317 77.37352069 166.35380547 98.37919551 169 120 C169.20810303 118.82763794 169.20810303 118.82763794 169.42041016 117.6315918 C173.2100113 96.60633433 177.76513177 75.77235077 182.66033173 54.97958755 C183.12237112 53.01119961 183.58042551 51.0419232 184.03741455 49.07235718 C184.91212123 45.31631099 185.80144751 41.56402762 186.6953125 37.8125 C186.95356812 36.69796951 187.21182373 35.58343903 187.47790527 34.43513489 C190.36281639 22.50170884 194.12808217 10.36009591 204.125 2.5625 C208.5692425 0.14715082 212.03803762 -0.12236256 217.078125 -0.09765625 C218.23828125 -0.09443359 219.3984375 -0.09121094 220.59375 -0.08789062 C222.40359375 -0.07532227 222.40359375 -0.07532227 224.25 -0.0625 C226.08304688 -0.05573242 226.08304688 -0.05573242 227.953125 -0.04882812 C230.96880196 -0.03704814 233.98436778 -0.01974109 237 0 C234.1721883 13.16872048 230.97339386 26.2158791 227.59765625 39.25390625 C227.07740447 41.2719968 226.55738028 43.29014603 226.03756714 45.30834961 C224.66471271 50.634908 223.28789869 55.96043476 221.91001511 61.28569412 C221.05994565 64.57237605 220.21106089 67.85936167 219.36257935 71.14645386 C211.36431414 102.13125186 203.27798781 133.08852653 195 164 C177.51 164 160.02 164 142 164 C140.1914388 156.76575518 138.44098277 149.633616 137.02294922 142.33178711 C136.84855316 141.44727875 136.6741571 140.56277039 136.49447632 139.65145874 C135.92843469 136.77729213 135.36659977 133.90232022 134.8046875 131.02734375 C134.40812943 129.01137543 134.01124274 126.99547174 133.61404419 124.97962952 C132.5762002 119.70916874 131.5416567 114.4380665 130.50817871 109.16674805 C128.84788531 100.69915566 127.18432111 92.23220991 125.5173378 83.76593208 C124.93672237 80.8131207 124.35863353 77.85982228 123.7807312 74.90647888 C123.42667579 73.10552008 123.07252458 71.30458011 122.71826172 69.50366211 C122.55825684 68.68238327 122.39825195 67.86110443 122.23339844 67.01493835 C121.62613045 63.93770204 120.99307191 60.97921572 120 58 C119.7037674 59.20998657 119.40753479 60.41997314 119.10232544 61.66662598 C116.30708312 73.08391451 113.51163612 84.50115291 110.71599007 95.91834259 C109.27881922 101.78765902 107.84171984 107.65699293 106.40478516 113.52636719 C105.01740067 119.19333481 103.62982665 124.860256 102.24212265 130.52714539 C101.71340089 132.6863999 101.18474678 134.84567099 100.65616226 137.00495911 C99.91434726 140.03525134 99.17228915 143.06548395 98.43017578 146.09570312 C98.10433502 147.42711838 98.10433502 147.42711838 97.77191162 148.78543091 C97.5672226 149.62101532 97.36253357 150.45659973 97.15164185 151.31750488 C96.97650118 152.03281624 96.80136051 152.74812759 96.62091255 153.48511505 C95.75507713 156.99201221 94.87608751 160.49564994 94 164 C76.84 164 59.68 164 42 164 C39.84017578 155.63333984 39.84017578 155.63333984 37.63671875 147.09765625 C35.91527941 140.43121507 34.19349003 133.76486434 32.47163773 127.09852982 C31.69103755 124.07619673 30.91055838 121.05383241 30.13009644 118.03146362 C24.52253332 96.31737616 18.90558073 74.60585104 13.2421875 52.90625 C12.79385934 51.18778227 12.34554072 49.46931205 11.89723206 47.75083923 C9.99884903 40.47515241 8.09898618 33.19986278 6.19346237 25.92604256 C5.42272129 22.98216158 4.65387038 20.03778927 3.8854866 17.09329224 C3.53073948 15.73576786 3.17511456 14.37847252 2.81855392 13.02142334 C2.33656134 11.18681294 1.85776034 9.3513649 1.37915039 7.51586914 C1.11099014 6.49191544 0.8428299 5.46796173 0.56654358 4.41297913 C0 2 0 2 0 0 Z " fill="#002827" transform="translate(644,223)"/>
<path d="M0 0 C15.70764811 12.03139004 23.79891999 28.85646993 27.25 48.125 C30.9426261 77.86561019 27.86846595 109.86774123 9.125 134.3125 C-2.19765713 147.66245193 -17.35561495 157.05269643 -35 159 C-47.03926303 159.75245394 -58.14871767 159.37025647 -70 157 C-70 175.81 -70 194.62 -70 214 C-84.85 214 -99.7 214 -115 214 C-115 141.4 -115 68.8 -115 -6 C-103.78 -6 -92.56 -6 -81 -6 C-78.36 -2.04 -75.72 1.92 -73 6 C-70.18613699 6 -69.55595805 4.75622521 -67.5625 2.8125 C-49.57017239 -13.17709096 -19.57729766 -12.63051462 0 0 Z M-69.69742203 37.23511124 C-71.90565984 40.22709651 -71.78820189 43.37430787 -71.68115234 46.93310547 C-71.6820285 47.7045137 -71.68290466 48.47592194 -71.68380737 49.27070618 C-71.6796488 51.8039205 -71.63308507 54.33443973 -71.5859375 56.8671875 C-71.57473905 58.62979689 -71.56620193 60.39242503 -71.56021118 62.15505981 C-71.53736361 66.78169832 -71.47847649 71.40719653 -71.4119873 76.03338623 C-71.35047625 80.75907975 -71.3231774 85.48495856 -71.29296875 90.2109375 C-71.22872849 99.4744578 -71.1263991 108.73713387 -71 118 C-69.56114042 118.6537877 -68.12073733 119.30417921 -66.6796875 119.953125 C-65.87772949 120.31567383 -65.07577148 120.67822266 -64.24951172 121.05175781 C-56.04888024 124.5085901 -45.66309953 123.92484651 -37.3515625 121.1015625 C-28.89853688 117.14183953 -23.61956323 109.55936048 -20.3125 101.0625 C-14.83733827 83.11268002 -14.79162686 59.95324126 -23 43 C-27.09884343 36.23806621 -32.31381181 30.48606934 -40 28 C-51.87655904 26.71054502 -61.14864576 28.5455845 -69.69742203 37.23511124 Z " fill="#002827" transform="translate(1868,229)"/>
<path d="M0 0 C42.57 0 85.14 0 129 0 C129 42.57 129 85.14 129 129 C86.43 129 43.86 129 0 129 C0 86.43 0 43.86 0 0 Z " fill="#00314B" transform="translate(1347,522)"/>
<path d="M0 0 C16.63728706 15.36522084 20.82904754 38.65031804 21.94238281 60.27246094 C22.96444603 87.37262201 19.04373366 115.46188488 0.0625 136.125 C-14.67415233 149.67227685 -32.59296532 153.93483757 -52.11572266 153.99023438 C-54.15440213 153.99984399 -56.19202924 154.0308733 -58.23046875 154.0625 C-77.81217401 154.22090425 -94.82021624 149.02861441 -109.40625 135.7265625 C-125.99050042 118.56824187 -128.61906159 93.13487928 -128.5 70.4375 C-128.49817719 69.71355042 -128.49635437 68.98960083 -128.49447632 68.24371338 C-128.44888886 57.48061889 -128.02939631 47.19311294 -125.1875 36.75 C-125.01589355 36.1101416 -124.84428711 35.4702832 -124.66748047 34.81103516 C-119.82040901 17.25502032 -110.24375682 1.96879062 -94.1875 -7.25 C-65.48425266 -21.54320458 -25.45795884 -20.69673753 0 0 Z M-72.66015625 25.90625 C-81.87608764 37.03136411 -82.71289794 51.99050816 -82.63354492 65.80541992 C-82.62504636 68.05025541 -82.65389844 70.29252368 -82.68554688 72.53710938 C-82.75284098 86.33513882 -80.95404913 100.54068849 -72.1875 111.75 C-66.38412018 117.55337982 -60.8102308 118.95556581 -52.8125 119.1875 C-44.65198028 118.99416093 -38.65626388 117.64048459 -32.875 111.6875 C-21.14304641 96.38071291 -22.53539756 70.66206398 -24.72265625 52.60546875 C-26.40530635 41.25699612 -29.47848838 31.63808019 -38.1875 23.75 C-48.45620173 16.2225195 -63.46567532 17.07954831 -72.66015625 25.90625 Z " fill="#002827" transform="translate(1456.1875,236.25)"/>
<path d="M0 0 C13.13142961 11.22140349 20.39259322 26.70086855 22.015625 43.828125 C22.23556405 47.82932382 22.30899991 51.82126161 22.328125 55.828125 C22.33368408 56.7881543 22.33924316 57.74818359 22.3449707 58.73730469 C22.26354473 67.01352371 21.13142621 74.45961596 20.015625 82.828125 C-11.994375 82.828125 -44.004375 82.828125 -76.984375 82.828125 C-74.91698066 99.35605544 -74.91698066 99.35605544 -65.0078125 111.58203125 C-57.68425065 116.09210119 -49.97864529 117.89042191 -41.43798828 118.03344727 C-40.37734161 118.05339249 -39.31669495 118.07333771 -38.22390747 118.09388733 C-37.09556488 118.11059982 -35.96722229 118.12731232 -34.8046875 118.14453125 C-33.6367868 118.16531235 -32.46888611 118.18609344 -31.26559448 118.20750427 C-27.54691262 118.27271675 -23.82816211 118.33175301 -20.109375 118.390625 C-17.58332633 118.43383713 -15.05728451 118.47745228 -12.53125 118.52148438 C-6.34903022 118.62836908 -0.16674264 118.73018736 6.015625 118.828125 C4.91100737 124.1397194 3.65500559 129.26760019 1.8515625 134.39453125 C1.45195312 135.53857422 1.05234375 136.68261719 0.640625 137.86132812 C0.228125 139.02599609 -0.184375 140.19066406 -0.609375 141.390625 C-1.02960937 142.59009766 -1.44984375 143.78957031 -1.8828125 145.02539062 C-2.91212366 147.96126677 -3.94607384 150.89541881 -4.984375 153.828125 C-12.34509139 153.93083755 -19.70561834 154.00013163 -27.06689453 154.04785156 C-29.56305852 154.06777717 -32.05917702 154.09492762 -34.55517578 154.12988281 C-57.48292147 154.44257569 -78.19937019 153.22470011 -96.984375 138.828125 C-97.82484375 138.19777344 -98.6653125 137.56742188 -99.53125 136.91796875 C-112.91459447 125.51655268 -118.87478483 106.13744618 -120.79907227 89.19262695 C-122.86643781 62.81260677 -121.31851087 34.21057285 -103.984375 12.828125 C-103.36691406 12.04824219 -102.74945312 11.26835937 -102.11328125 10.46484375 C-78.15424286 -18.21851207 -29.52735985 -21.48849748 0 0 Z M-68.984375 30.828125 C-73.84088167 38.04165624 -75.984375 44.03990792 -75.984375 52.828125 C-57.504375 52.828125 -39.024375 52.828125 -19.984375 52.828125 C-19.984375 42.91536783 -20.311968 34.58254395 -26.984375 26.828125 C-39.56517777 17.28227877 -58.45319999 18.37219216 -68.984375 30.828125 Z " fill="#002827" transform="translate(2359.984375,233.171875)"/>
<path d="M0 0 C1.43532272 1.20732922 2.85251514 2.43656786 4.25 3.6875 C4.93835937 4.28304687 5.62671875 4.87859375 6.3359375 5.4921875 C16.97089519 15.3122059 22.2382773 28.55132828 24.25 42.6875 C24.3398167 45.03646081 24.38062131 47.38760494 24.3828125 49.73828125 C24.38376923 50.3965239 24.38472595 51.05476654 24.38571167 51.73295593 C24.38638851 53.11876522 24.38456903 54.50457777 24.38037109 55.89038086 C24.37504166 57.98363583 24.38031964 60.07667372 24.38671875 62.16992188 C24.39702388 80.39345225 24.39702388 80.39345225 22.25 84.6875 C-9.76 84.6875 -41.77 84.6875 -74.75 84.6875 C-72.36956035 101.17419842 -72.36956035 101.17419842 -62.6171875 113.62890625 C-55.07885951 117.90272819 -46.80433946 119.74879097 -38.20361328 119.89282227 C-37.14296661 119.91276749 -36.08231995 119.93271271 -34.98953247 119.95326233 C-33.86118988 119.96997482 -32.73284729 119.98668732 -31.5703125 120.00390625 C-30.4024118 120.02468735 -29.23451111 120.04546844 -28.03121948 120.06687927 C-24.31253762 120.13209175 -20.59378711 120.19112801 -16.875 120.25 C-14.34895133 120.29321213 -11.82290951 120.33682728 -9.296875 120.38085938 C-3.11465522 120.48774408 3.06763236 120.58956236 9.25 120.6875 C7.70562922 125.51256804 6.15729676 130.33633927 4.60522461 135.15893555 C4.07743071 136.80083458 3.55073489 138.443087 3.02514648 140.08569336 C2.27093028 142.44217472 1.51281679 144.79737068 0.75390625 147.15234375 C0.51845596 147.89089096 0.28300568 148.62943817 0.04042053 149.3903656 C-1.63612829 154.57362829 -1.63612829 154.57362829 -2.75 155.6875 C-4.32208922 155.7965483 -5.89903302 155.83655763 -7.47485352 155.84863281 C-8.48423477 155.85824036 -9.49361603 155.8678479 -10.53358459 155.87774658 C-11.63754074 155.88199646 -12.74149689 155.88624634 -13.87890625 155.890625 C-15.01593491 155.89632507 -16.15296356 155.90202515 -17.32444763 155.90789795 C-19.74648096 155.91737514 -22.16852735 155.92389265 -24.59057617 155.92773438 C-28.24487098 155.93732255 -31.89857463 155.96826996 -35.55273438 156 C-59.00311546 156.10731566 -80.88199049 153.78056436 -98.9375 137.0625 C-116.03957952 118.8039274 -119.70124158 92.70348438 -119.03515625 68.60546875 C-117.93313981 45.38012641 -111.45814347 24.48358107 -94.75 7.6875 C-94.15960937 7.06230469 -93.56921875 6.43710938 -92.9609375 5.79296875 C-70.6947631 -15.93371684 -24.69239962 -18.49823112 0 0 Z M-67.75 34.6875 C-72.49029745 41.52133843 -72.87976151 45.98511515 -73.75 54.6875 C-55.27 54.6875 -36.79 54.6875 -17.75 54.6875 C-17.45056878 41.00767194 -17.45056878 41.00767194 -23.55078125 29.515625 C-30.19191105 23.27425252 -36.86472864 22.23170967 -45.765625 22.453125 C-55.33582263 23.2047112 -61.4199621 27.55101748 -67.75 34.6875 Z " fill="#002827" transform="translate(2099.75,231.3125)"/>
<path d="M0 0 C3.10426307 2.56217534 6.08462464 5.22546403 9 8 C8.45036104 11.96078291 6.59293189 13.78096675 3.80859375 16.5546875 C2.94556641 17.41707031 2.08253906 18.27945313 1.19335938 19.16796875 C0.28392578 20.06128906 -0.62550781 20.95460937 -1.5625 21.875 C-2.44486328 22.76058594 -3.32722656 23.64617187 -4.23632812 24.55859375 C-9.20911955 29.49095598 -14.23516303 34.01295124 -20 38 C-20.62104614 37.28614136 -20.62104614 37.28614136 -21.25463867 36.55786133 C-28.75109453 28.1214417 -39.39207602 23.67927893 -50.5 22.6875 C-55.32987732 23.11873905 -59.86036461 24.25437672 -63.67578125 27.3671875 C-65.4915593 29.60611147 -65.79270757 31.97869532 -66.27734375 34.76953125 C-65.83481375 38.3284697 -64.2535996 40.24960049 -62 43 C-59.61472764 44.54681299 -57.48639368 45.75569468 -54.9375 46.9375 C-54.24140625 47.27394531 -53.5453125 47.61039062 -52.828125 47.95703125 C-47.49852912 50.46618612 -42.04607459 52.52599258 -36.5 54.5 C-19.05030994 60.71803043 -1.41849646 68.32355587 7 86 C11.49729045 98.00889385 11.37723432 110.97499401 7 123 C-0.21005774 138.27364255 -12.00412012 146.99500947 -27.46875 152.95703125 C-36.67873132 155.67723591 -45.61448606 156.36015742 -55.1875 156.3125 C-56.37641846 156.30686035 -57.56533691 156.3012207 -58.7902832 156.29541016 C-82.51673108 155.96899577 -104.75090402 148.76995442 -122 132 C-120.49993609 128.55220914 -118.49590738 126.17639467 -115.9375 123.4375 C-111.0687108 118.12965735 -106.52893963 112.59766426 -102 107 C-100.34120892 104.99321079 -98.67209535 102.99572671 -97 101 C-93.31371976 101.57342137 -91.7184466 103.01137094 -89.125 105.625 C-78.83494194 115.03643241 -64.33642466 120.78480923 -50.3203125 120.2890625 C-45.43518476 119.68047756 -41.54755384 118.1110643 -37.5625 115.25 C-35.38882894 112.11991368 -35.06649503 109.79021645 -35 106 C-38.39205086 97.8967674 -46.45674223 95.22182708 -54 92 C-57.39343551 90.67058179 -60.80172348 89.386358 -64.21411133 88.10644531 C-75.60531304 83.8124283 -86.37003786 79.59566923 -96 72 C-97.05574219 71.19755859 -97.05574219 71.19755859 -98.1328125 70.37890625 C-104.63174589 64.73805714 -109.94487146 54.50536539 -111 46 C-111.84916388 29.88221637 -109.56717148 17.51467414 -98.875 4.875 C-74.64120186 -21.00653565 -27.57940328 -19.70607528 0 0 Z " fill="#002827" transform="translate(626,234)"/>
<path d="M0 0 C2.54118544 2.52347683 4.83198015 5.15123672 7 8 C5.5800745 11.23048748 3.86380613 13.38242488 1.3671875 15.86328125 C0.64273437 16.58580078 -0.08171875 17.30832031 -0.828125 18.05273438 C-1.96507812 19.17131836 -1.96507812 19.17131836 -3.125 20.3125 C-3.85976562 21.04662109 -4.59453125 21.78074219 -5.3515625 22.53710938 C-7.54653377 24.71469091 -9.76406726 26.86453082 -12 29 C-13.08812988 30.04099854 -13.08812988 30.04099854 -14.19824219 31.10302734 C-14.89336914 31.74320801 -15.58849609 32.38338867 -16.3046875 33.04296875 C-16.92069824 33.61426514 -17.53670898 34.18556152 -18.17138672 34.77416992 C-20 36 -20 36 -24 36 C-25.19562977 34.57188667 -26.38476723 33.13709526 -27.51953125 31.66015625 C-32.20602098 26.40485774 -39.17839278 23.41707896 -46.078125 22.6640625 C-54.40102606 22.56156372 -61.40943005 23.24809187 -68.03125 28.66015625 C-78.70967811 39.67794118 -79.33726698 56.32259313 -79.23217773 70.83642578 C-78.94076294 85.50088687 -77.6011858 101.47545439 -66.8046875 112.48046875 C-60.59004564 117.71314339 -52.46128517 118.41048875 -44.609375 117.8203125 C-35.18464008 116.20558519 -28.70800887 110.31796008 -23 103 C-19.69376652 104.46280307 -17.34406102 106.30908383 -14.6875 108.75 C-13.82769531 109.53761719 -12.96789063 110.32523437 -12.08203125 111.13671875 C-11.05390262 112.09030029 -10.02664266 113.04481882 -9 114 C-8.36368652 114.59119629 -7.72737305 115.18239258 -7.07177734 115.79150391 C-2.70552917 119.85142132 1.65078332 123.92184673 6 128 C3.10364175 136.58347836 -4.57459561 142.3569168 -12.265625 146.65625 C-25.81489755 153.31474965 -38.12895972 155.42154921 -53.125 155.375 C-54.15630035 155.37368576 -54.15630035 155.37368576 -55.20843506 155.37234497 C-74.47427607 155.29126875 -91.25957836 151.46000275 -105.65234375 137.62890625 C-113.97851127 128.30526109 -118.87805633 118.0592726 -122 106 C-122.47759766 104.23462891 -122.47759766 104.23462891 -122.96484375 102.43359375 C-129.28119597 74.05367017 -126.94925277 39.50538111 -111.1875 14.625 C-99.73847005 -1.52940779 -83.68124897 -11.0120071 -64.25 -14.49609375 C-41.75029749 -17.53935027 -18.34250827 -14.08750635 0 0 Z " fill="#002827" transform="translate(1312,235)"/>
<path d="M0 0 C0.84022705 0.00249756 1.6804541 0.00499512 2.54614258 0.00756836 C3.59697021 0.01667236 4.64779785 0.02577637 5.73046875 0.03515625 C10.77328125 0.06609375 10.77328125 0.06609375 15.91796875 0.09765625 C15.91796875 13.62765625 15.91796875 27.15765625 15.91796875 41.09765625 C29.44796875 41.09765625 42.97796875 41.09765625 56.91796875 41.09765625 C53.54296875 53.47265625 53.54296875 53.47265625 52.09375 57.546875 C51.81700439 58.33151123 51.54025879 59.11614746 51.25512695 59.92456055 C50.91698975 60.86855713 50.57885254 61.81255371 50.23046875 62.78515625 C49.13734375 65.85828125 48.04421875 68.93140625 46.91796875 72.09765625 C36.68796875 72.09765625 26.45796875 72.09765625 15.91796875 72.09765625 C15.98091556 83.07683231 16.05635013 94.05572849 16.15368366 105.03465462 C16.19838365 110.13278748 16.2376407 115.23084049 16.2644043 120.32910156 C16.29044083 125.25054101 16.33084596 130.17167313 16.38115501 135.09292221 C16.39782131 136.9691167 16.40933707 138.84536435 16.41558266 140.72162247 C16.42522628 143.35266476 16.45328852 145.98292125 16.4855957 148.61376953 C16.48416061 149.38701065 16.48272552 150.16025177 16.48124695 150.95692444 C16.56457199 155.76477921 17.55683101 158.93833796 19.91796875 163.09765625 C19.91796875 163.75765625 19.91796875 164.41765625 19.91796875 165.09765625 C27.6529674 168.21001277 34.69294225 168.63094922 42.98046875 168.78515625 C44.22763672 168.81931641 45.47480469 168.85347656 46.75976562 168.88867188 C49.81241002 168.97054356 52.86478909 169.03989253 55.91796875 169.09765625 C53.83872116 177.07902784 51.41805262 184.90509878 48.79296875 192.72265625 C48.43332031 193.80933594 48.07367187 194.89601563 47.703125 196.015625 C47.18685547 197.56056641 47.18685547 197.56056641 46.66015625 199.13671875 C46.34933105 200.06693848 46.03850586 200.9971582 45.71826172 201.95556641 C44.91796875 204.09765625 44.91796875 204.09765625 43.91796875 205.09765625 C41.47620697 205.2361756 39.06490322 205.31085236 36.62109375 205.3359375 C35.87647888 205.34400925 35.13186401 205.35208099 34.36468506 205.36039734 C32.77748964 205.37426911 31.19026399 205.38497734 29.60302734 205.39282227 C27.21910779 205.40979222 24.83666625 205.45361302 22.453125 205.49804688 C8.27311761 205.64302306 -4.33440022 203.31405463 -15.01171875 193.28515625 C-26.55406321 180.99974241 -28.54604082 165.29596349 -28.48608398 149.03076172 C-28.49180641 147.68857258 -28.49877778 146.3463883 -28.50688171 145.00421143 C-28.52461581 141.40510399 -28.52368339 137.80624291 -28.51793933 134.20710516 C-28.51482046 131.18535727 -28.52096912 128.16365489 -28.52697808 125.14191353 C-28.54095494 118.00814367 -28.53951767 110.87449376 -28.52807617 103.74072266 C-28.51658396 96.41398719 -28.5307046 89.08761731 -28.55747265 81.76092994 C-28.57970674 75.4352211 -28.58625027 69.1096264 -28.58039623 62.78388131 C-28.57704594 59.02101176 -28.57931269 55.25837678 -28.59664726 51.49554062 C-28.61223991 47.95758768 -28.60802673 44.42017293 -28.58934212 40.8822403 C-28.58396699 38.98576489 -28.59807334 37.08926456 -28.61303711 35.19284058 C-28.51605256 23.77835997 -26.19016894 14.17370012 -18.1015625 5.875 C-12.71470933 1.13415243 -6.99277989 -0.04290049 0 0 Z " fill="#002827" transform="translate(2174.08203125,181.90234375)"/>
<path d="M0 0 C0.86560547 0.00902344 1.73121094 0.01804688 2.62304688 0.02734375 C4.72798779 0.05060277 6.83278342 0.08645992 8.9375 0.125 C9.00764696 25.22945986 9.06051607 50.33390499 9.09293652 75.43844318 C9.10839142 87.0954701 9.12945466 98.75243605 9.16381836 110.40942383 C9.19376281 120.57216073 9.21308501 130.73485346 9.21976548 140.89763325 C9.22366918 146.27646459 9.23281479 151.65516958 9.25469017 157.03396034 C9.27513502 162.10233219 9.28131766 167.1705263 9.27682304 172.23893547 C9.27764467 174.09360344 9.28356245 175.94827769 9.29511642 177.80290985 C9.37325734 190.99936945 9.28791907 203.73100737 -0.0625 214.125 C-5.38861582 218.34150836 -9.99795741 220.25730732 -16.82421875 220.22265625 C-17.94248047 220.21943359 -19.06074219 220.21621094 -20.21289062 220.21289062 C-21.38013672 220.20451172 -22.54738281 220.19613281 -23.75 220.1875 C-24.92884766 220.18298828 -26.10769531 220.17847656 -27.32226562 220.17382812 C-30.23572789 220.16203273 -33.14908863 220.1455727 -36.0625 220.125 C-36.13266619 195.29857873 -36.18552546 170.47217239 -36.21793652 145.64567184 C-36.23338736 134.1175886 -36.25444278 122.58956707 -36.28881836 111.06152344 C-36.31877531 101.0104783 -36.33808796 90.95947787 -36.34476548 80.90838933 C-36.34866707 75.58932919 -36.35779916 70.27039692 -36.37969017 64.95137787 C-36.40015482 59.93799438 -36.40631372 54.92479062 -36.40182304 49.91136932 C-36.4026438 48.07808453 -36.40854967 46.24479329 -36.42011642 44.4115448 C-36.49999325 31.09063849 -36.54602239 17.5954953 -27.0625 7.125 C-19.28896866 0.4338591 -9.87705904 -0.19922695 0 0 Z " fill="#002827" transform="translate(1952.0625,166.875)"/>
<path d="M0 0 C1.51303711 0.02030273 1.51303711 0.02030273 3.05664062 0.04101562 C5.51750621 0.07600424 7.97720335 0.12508842 10.4375 0.1875 C10.50772347 17.99046353 10.56055332 35.79339089 10.59293652 53.5964632 C10.60837531 61.86359106 10.62940737 70.13063262 10.66381836 78.39770508 C10.69381256 85.60713025 10.7130967 92.8164929 10.71976548 100.02597874 C10.72366085 103.83987529 10.73275242 107.65359304 10.75469017 111.46743202 C10.77521411 115.06499267 10.78130209 118.66230267 10.77682304 122.25991631 C10.77802816 124.19371634 10.7940864 126.12748974 10.8107605 128.06121826 C10.77162105 139.22484987 9.13835826 149.62717095 1.4375 158.1875 C-3.88861582 162.40400836 -8.49795741 164.31980732 -15.32421875 164.28515625 C-16.44248047 164.28193359 -17.56074219 164.27871094 -18.71289062 164.27539062 C-19.88013672 164.26701172 -21.04738281 164.25863281 -22.25 164.25 C-23.42884766 164.24548828 -24.60769531 164.24097656 -25.82226562 164.23632812 C-28.73572789 164.22453273 -31.64908863 164.2080727 -34.5625 164.1875 C-34.632752 146.66257213 -34.68556718 129.13768854 -34.71793652 111.61265182 C-34.73336931 103.47446723 -34.75438974 95.33637042 -34.78881836 87.19824219 C-34.8188311 80.10050877 -34.83810104 73.00283896 -34.84476548 65.90504384 C-34.84865775 62.15091779 -34.85772914 58.39697363 -34.87969017 54.64290619 C-34.9002436 51.1003334 -34.90629631 47.55801524 -34.90182304 44.01538849 C-34.90302569 42.11398549 -34.91906822 40.21260941 -34.9357605 38.3112793 C-34.89084764 25.66921533 -32.8432115 14.61095494 -23.8125 5.375 C-16.26511735 0.29503091 -8.91162345 -0.23001543 0 0 Z " fill="#002827" transform="translate(933.5625,222.8125)"/>
<path d="M0 0 C3.50876177 2.15875946 5.87933212 4.99258149 8.203125 8.35546875 C8.66460938 7.8965625 9.12609375 7.43765625 9.6015625 6.96484375 C16.34730395 0.61904745 22.85352069 -2.75153771 32.203125 -3.20703125 C38.3899912 -2.9525586 43.26306138 -1.42429523 48.203125 2.35546875 C56.38093951 11.27980574 56.49527837 21.30950898 56.3984375 32.82421875 C56.3956076 34.10026978 56.39277771 35.3763208 56.38986206 36.69104004 C56.38060497 40.05793934 56.36268462 43.42455957 56.3404541 46.79138184 C56.31987172 50.23719855 56.31072388 53.68304512 56.30078125 57.12890625 C56.28049743 63.87124913 56.24133737 70.61310853 56.203125 77.35546875 C47.953125 77.35546875 39.703125 77.35546875 31.203125 77.35546875 C31.16574219 73.65972656 31.12835937 69.96398437 31.08984375 66.15625 C31.0436271 62.57521662 30.99239379 58.9942877 30.94067383 55.41333008 C30.90742843 52.92543897 30.87939534 50.43747251 30.85668945 47.94946289 C30.8231373 44.37223207 30.77081908 40.79569156 30.71484375 37.21875 C30.70845383 36.1071199 30.7020639 34.99548981 30.69548035 33.85017395 C30.67568619 32.8094725 30.65589203 31.76877106 30.63549805 30.6965332 C30.62439499 29.78386185 30.61329193 28.87119049 30.60185242 27.93086243 C30.11670858 24.79730223 29.07641039 22.89811605 27.203125 20.35546875 C24.21150375 19.19961508 22.33806919 18.88730427 19.328125 20.12890625 C16.64921571 21.61346848 14.3700083 23.18858545 12.203125 25.35546875 C11.87210966 27.65885677 11.87210966 27.65885677 11.88427734 30.35595703 C11.86440765 31.39688507 11.84453796 32.43781311 11.82406616 33.51028442 C11.81251495 34.63739838 11.80096375 35.76451233 11.7890625 36.92578125 C11.76969635 38.07714569 11.7503302 39.22851013 11.7303772 40.4147644 C11.67045128 44.10325644 11.62414374 47.79177947 11.578125 51.48046875 C11.53995723 53.97657634 11.50090622 56.4726706 11.4609375 58.96875 C11.36307182 65.09758805 11.28360503 71.22627875 11.203125 77.35546875 C2.953125 77.35546875 -5.296875 77.35546875 -13.796875 77.35546875 C-13.84585937 73.89949219 -13.89484375 70.44351563 -13.9453125 66.8828125 C-13.9993732 63.52347609 -14.05666076 60.16420906 -14.11425781 56.80493164 C-14.15246279 54.47620851 -14.18733026 52.14742808 -14.21875 49.81860352 C-14.26458462 46.46479865 -14.32254925 43.1113854 -14.3828125 39.7578125 C-14.39436371 38.72212631 -14.40591492 37.68644012 -14.41781616 36.61936951 C-14.52805415 31.17957469 -14.87367588 26.46941034 -16.796875 21.35546875 C-19.17906383 19.31359261 -20.48273904 19.34848795 -23.609375 19.41796875 C-27.78518082 20.64614693 -30.96526399 21.94983679 -33.796875 25.35546875 C-34.84141834 29.29903907 -34.75129034 33.1581779 -34.69921875 37.21875 C-34.71765587 38.9394294 -34.71765587 38.9394294 -34.73646545 40.69487 C-34.76821976 44.3532186 -34.75190924 48.00955671 -34.734375 51.66796875 C-34.74748221 54.15040938 -34.76372113 56.63283559 -34.78320312 59.11523438 C-34.82996673 65.19653648 -34.81172641 71.2727575 -34.796875 77.35546875 C-43.046875 77.35546875 -51.296875 77.35546875 -59.796875 77.35546875 C-59.796875 51.61546875 -59.796875 25.87546875 -59.796875 -0.64453125 C-52.866875 -0.64453125 -45.936875 -0.64453125 -38.796875 -0.64453125 C-38.136875 1.99546875 -37.476875 4.63546875 -36.796875 7.35546875 C-36.07242187 6.80117188 -35.34796875 6.246875 -34.6015625 5.67578125 C-33.63476562 4.95132813 -32.66796875 4.226875 -31.671875 3.48046875 C-30.72054688 2.76117187 -29.76921875 2.041875 -28.7890625 1.30078125 C-20.00320146 -4.4111754 -9.40773744 -4.20313431 0 0 Z " fill="#00314B" transform="translate(1244.796875,549.64453125)"/>
<path d="M0 0 C7.20115844 6.07597744 10.98189598 14.61552141 13 23.6875 C13.80219873 36.83829881 13.52492223 49.25190601 4.6875 59.87890625 C-2.95420733 68.06897683 -11.17375101 72.98248472 -22.54296875 73.890625 C-34.02924927 74.09422229 -43.22006872 70.94198298 -51.75 63.1875 C-52.86375 61.95 -52.86375 61.95 -54 60.6875 C-54.680625 59.945 -55.36125 59.2025 -56.0625 58.4375 C-63.77344454 47.49293356 -63.9310062 35.61496323 -63 22.6875 C-61.12207412 12.06477467 -55.73798396 4.24214179 -47.1875 -2.1875 C-32.14037304 -11.93984845 -14.3530841 -10.25220293 0 0 Z M-33 14.6875 C-38.52526121 21.83162755 -38.59406389 30.02956886 -38 38.6875 C-37.16044111 43.43314217 -35.81124212 47.3370581 -32.3125 50.75 C-27.92362316 53.31707891 -26.02256571 53.40500939 -21 52.6875 C-16.40104058 50.13252254 -14.49115508 46.60318204 -13 41.6875 C-12.59587725 38.67391851 -12.57914377 35.72420137 -12.625 32.6875 C-12.61339844 31.91921875 -12.60179687 31.1509375 -12.58984375 30.359375 C-12.62191312 24.07377895 -13.96149933 19.45403662 -17.75 14.3125 C-22.95514425 10.55322915 -27.92756599 11.08043582 -33 14.6875 Z " fill="#00314B" transform="translate(1158,555.3125)"/>
<path d="M0 0 C2.68616388 0.96426396 3.62198986 1.71265692 5.4375 3.875 C6.48161316 6.13395691 6.48161316 6.13395691 7.43041992 8.80541992 C7.79056686 9.80623093 8.15071381 10.80704193 8.52177429 11.83818054 C8.90001846 12.91638565 9.27826263 13.99459076 9.66796875 15.10546875 C10.06325272 16.21102615 10.45853668 17.31658356 10.86579895 18.4556427 C12.12686724 21.98847111 13.3760511 25.52537114 14.625 29.0625 C15.47773645 31.4579598 16.33124266 33.85314574 17.18554688 36.24804688 C19.27847467 42.12054888 21.36165968 47.99643762 23.4375 53.875 C26.47279546 46.74514931 29.33576815 39.60761484 31.84765625 32.27734375 C32.45060191 30.55253503 33.0541337 28.8279311 33.65820312 27.10351562 C34.58781265 24.43926115 35.51327264 21.77381226 36.42895508 19.10473633 C37.32761246 16.4913448 38.24247782 13.88410646 39.16015625 11.27734375 C39.56500999 10.07742043 39.56500999 10.07742043 39.9780426 8.85325623 C42.46894199 1.84974977 42.46894199 1.84974977 46.4375 -0.125 C49.4375 -0.3125 49.4375 -0.3125 52.4375 0.875 C55.76932672 6.73923234 58.03965685 12.90460391 60.29296875 19.24609375 C60.64007401 20.20902847 60.98717926 21.1719632 61.34480286 22.16407776 C62.44285871 25.21190181 63.53441511 28.26199549 64.625 31.3125 C65.7270468 34.38771707 66.83051773 37.46239945 67.93733215 40.53590393 C68.62362933 42.44234299 69.3070502 44.34982035 69.98735046 46.25840759 C70.44836906 47.54093163 70.44836906 47.54093163 70.91870117 48.84936523 C71.32363045 49.98232277 71.32363045 49.98232277 71.73674011 51.13816833 C72.30497108 52.87286146 72.30497108 52.87286146 73.4375 53.875 C73.65412292 53.24272995 73.87074585 52.6104599 74.09393311 51.95903015 C76.34953867 45.38389639 78.62347606 38.81531408 80.90820312 32.25024414 C81.75863692 29.79875512 82.60437032 27.34563029 83.4453125 24.89086914 C84.65435763 21.36424989 85.88014228 17.84384424 87.109375 14.32421875 C87.48245789 13.22413986 87.85554077 12.12406097 88.2399292 10.99064636 C88.60000061 9.96981461 88.96007202 8.94898285 89.33105469 7.8972168 C89.79738312 6.54819527 89.79738312 6.54819527 90.27313232 5.17192078 C91.62937379 2.49649507 92.84156571 1.3523009 95.4375 -0.125 C99.11043796 0.09537628 100.80716546 0.24466546 103.4375 2.875 C103.83530851 7.91989809 103.06650067 11.80040661 101.38964844 16.54125977 C101.17174149 17.16662628 100.95383453 17.7919928 100.72932434 18.43630981 C100.01265748 20.48367128 99.28030057 22.52499435 98.546875 24.56640625 C98.04007071 25.99908898 97.53399945 27.43203122 97.02862549 28.86521912 C95.96957853 31.86083876 94.90293548 34.85360677 93.83056641 37.84448242 C92.4612144 41.66504063 91.10914708 45.49143965 89.76250839 49.32005405 C88.72039156 52.27778812 87.67006742 55.23255515 86.61719513 58.18647575 C86.11577416 59.59577034 85.61664768 61.00588359 85.11992645 62.41684151 C84.42240521 64.39362737 83.71412644 66.3662344 83.00292969 68.33813477 C82.6032196 69.45841568 82.20350952 70.57869659 81.79168701 71.73292542 C80.32889448 75.12699374 78.70078609 77.9524418 76.4375 80.875 C72.31778047 81.54760727 70.93937953 81.20958635 67.4375 78.875 C66.35542297 76.66036987 66.35542297 76.66036987 65.3527832 73.87451172 C64.97261551 72.83358368 64.59244781 71.79265564 64.20075989 70.72018433 C63.60058296 69.0295134 63.60058296 69.0295134 62.98828125 67.3046875 C62.57080124 66.15332306 62.15332123 65.00195862 61.72319031 63.81570435 C60.38937949 60.13045678 59.06956489 56.44036956 57.75 52.75 C56.85034474 50.25316583 55.94754423 47.75748347 55.04492188 45.26171875 C52.83192991 39.1365617 50.63041446 33.00737178 48.4375 26.875 C47.26847741 30.0594227 46.09978882 33.2439674 44.93164062 36.42871094 C43.93192364 39.15390575 42.9304081 41.87843083 41.92773438 44.60253906 C39.59210276 50.95433144 37.27233937 57.3093512 35.03125 63.6953125 C34.67417969 64.70513184 34.31710937 65.71495117 33.94921875 66.75537109 C33.28724412 68.63298928 32.63326416 70.51345003 31.98828125 72.39697266 C31.69308594 73.23019043 31.39789062 74.0634082 31.09375 74.921875 C30.84431641 75.64213867 30.59488281 76.36240234 30.33789062 77.10449219 C29.4375 78.875 29.4375 78.875 26.4375 80.875 C23 81 23 81 19.4375 79.875 C15.24418801 72.83826665 12.75420644 64.94878094 9.98046875 57.26953125 C9.46819504 55.85802184 8.95584944 54.44653853 8.44343567 53.03507996 C7.37667038 50.09216318 6.31420447 47.1477329 5.25415039 44.20239258 C3.89625341 40.43212461 2.52236252 36.6678978 1.14460278 32.90485096 C0.08362233 29.99877365 -0.96619035 27.08875443 -2.01294518 24.17752647 C-2.51484944 22.7874163 -3.02082629 21.39876941 -3.53098488 20.01166725 C-4.24185011 18.07535536 -4.93681708 16.1340216 -5.62817383 14.19067383 C-6.02692215 13.0889534 -6.42567047 11.98723297 -6.83650208 10.85212708 C-7.60670436 7.6937295 -7.57001438 5.94120442 -6.5625 2.875 C-4.31576276 0.46778153 -3.31414785 -0.16166575 0 0 Z " fill="#00314B" transform="translate(1962.5625,546.125)"/>
<path d="M0 0 C3.49347137 4.60486835 5.07017863 10.34214852 6.9765625 15.734375 C7.34727875 16.7681427 7.717995 17.8019104 8.09994507 18.86700439 C9.27999914 22.15956085 10.45297397 25.45457817 11.625 28.75 C12.80503693 32.05937999 13.98659952 35.36819264 15.17147827 38.67584229 C15.90792889 40.73249842 16.641421 42.7902167 17.37173462 44.84906006 C17.7023288 45.77382141 18.03292297 46.69858276 18.37353516 47.65136719 C18.6642691 48.4690155 18.95500305 49.28666382 19.25454712 50.12908936 C19.84989717 51.98161472 19.84989717 51.98161472 21 53 C21.21662292 52.38247864 21.43324585 51.76495728 21.65643311 51.12872314 C23.91410522 44.70003987 26.18773692 38.27716505 28.47070312 31.85742188 C29.32051298 29.46108782 30.16624823 27.06330473 31.0078125 24.6640625 C32.21846261 21.2148518 33.44369023 17.7711248 34.671875 14.328125 C35.04495789 13.25508118 35.41804077 12.18203735 35.8024292 11.07647705 C36.16250061 10.07574158 36.52257202 9.0750061 36.89355469 8.04394531 C37.20444031 7.16458313 37.51532593 6.28522095 37.83563232 5.37921143 C39.18631746 2.61928811 40.62535821 0.94231302 43 -1 C46.0625 -1 46.0625 -1 49 0 C51.38556177 2.69453632 52.68471596 5.35593384 53.90112305 8.72094727 C54.41131233 10.11743248 54.41131233 10.11743248 54.93180847 11.54212952 C55.46636406 13.0391465 55.46636406 13.0391465 56.01171875 14.56640625 C56.38480667 15.59684555 56.75789459 16.62728485 57.14228821 17.68894958 C57.9279982 19.8639516 58.71032574 22.04017807 59.48950195 24.2175293 C60.68534321 27.55647795 61.89359083 30.89074184 63.10351562 34.22460938 C63.86532474 36.33827459 64.62641711 38.45219831 65.38671875 40.56640625 C65.74916183 41.5664418 66.11160492 42.56647736 66.48503113 43.59681702 C66.81570084 44.524655 67.14637054 45.45249298 67.48706055 46.40844727 C67.78001511 47.22467056 68.07296967 48.04089386 68.37480164 48.8818512 C69 51 69 51 69 54 C69.66 54 70.32 54 71 54 C71.09748535 53.20795166 71.1949707 52.41590332 71.29541016 51.59985352 C72.19190964 47.0195053 73.69674063 42.78767593 75.2734375 38.40234375 C75.76005356 37.034515 75.76005356 37.034515 76.25650024 35.63905334 C76.9416093 33.71770312 77.62927404 31.7972625 78.31933594 29.87768555 C79.37174309 26.946571 80.41294124 24.01164319 81.453125 21.07617188 C82.12172447 19.20548908 82.79097355 17.33503831 83.4609375 15.46484375 C83.77042328 14.59077377 84.07990906 13.7167038 84.39877319 12.81614685 C88.24843294 2.16771137 88.24843294 2.16771137 93 -1 C96.00063099 -0.84996845 97.55879029 -0.34158171 99.9375 1.5 C102.99550407 8.6953037 96.55265166 20.35170411 94.0625 27.30078125 C93.57651434 28.66825238 93.09092559 30.03586464 92.60571289 31.40361023 C91.59360964 34.25308214 90.57799498 37.10126777 89.55957031 39.94848633 C88.25625031 43.59253147 86.95992942 47.23901744 85.66596985 50.88639545 C84.66604537 53.70356579 83.66342195 56.51976921 82.65988159 59.33565331 C82.18085261 60.6802232 81.70243201 62.02501 81.22463989 63.37001991 C80.55730338 65.24670974 79.88615575 67.12204303 79.21484375 68.99731445 C78.83448975 70.0627095 78.45413574 71.12810455 78.06225586 72.2257843 C75.5792943 78.71035285 75.5792943 78.71035285 73 80 C67.59363996 80.46011575 67.59363996 80.46011575 65.43215942 78.7848053 C63.73427517 76.66884477 62.94543948 74.74495082 62.02294922 72.19311523 C61.66602997 71.21878036 61.30911072 70.2444455 60.94137573 69.24058533 C60.56626862 68.19052811 60.1911615 67.14047089 59.8046875 66.05859375 C59.41177521 64.97997574 59.01886292 63.90135773 58.61404419 62.79005432 C57.35979854 59.34200931 56.11711646 55.88993076 54.875 52.4375 C53.62327904 48.9824335 52.36924944 45.52821348 51.11453247 42.07423401 C50.33431113 39.92380733 49.55631901 37.77257032 48.7807312 35.62046814 C48.43011627 34.64928543 48.07950134 33.67810272 47.71826172 32.67749023 C47.40976288 31.82050034 47.10126404 30.96351044 46.78341675 30.08055115 C46.03437683 27.98263689 46.03437683 27.98263689 45 26 C44.78115646 26.63227005 44.56231293 27.2645401 44.33683777 27.91596985 C42.05977263 34.48922557 39.77062017 41.05817979 37.47436523 47.62475586 C36.61870826 50.07679506 35.76615135 52.52991833 34.91674805 54.98413086 C33.69610737 58.50923852 32.46441316 62.03031195 31.23046875 65.55078125 C30.66310249 67.20089958 30.66310249 67.20089958 30.08427429 68.88435364 C29.72412735 69.90518539 29.36398041 70.92601715 28.99291992 71.9777832 C28.67981369 72.87713089 28.36670746 73.77647858 28.04411316 74.70307922 C26.96444474 77.07821721 26.05628228 78.40865927 24 80 C21 80.375 21 80.375 18 80 C15.40699026 77.92762496 14.34994897 75.87031263 13.22583008 72.78588867 C12.91152542 71.93616989 12.59722076 71.08645111 12.27339172 70.21098328 C11.77648079 68.82844109 11.77648079 68.82844109 11.26953125 67.41796875 C10.91541672 66.45337234 10.56130219 65.48877594 10.19645691 64.49494934 C9.06063583 61.39526561 7.93642912 58.29151289 6.8125 55.1875 C6.07562933 53.17094625 5.33800632 51.15466725 4.59960938 49.13867188 C3.12613367 45.11299629 1.66291774 41.08378415 0.20556641 37.05224609 C-1.27555803 32.96429637 -2.79164512 28.89171036 -4.33447266 24.82666016 C-4.70687576 23.83459061 -5.07927887 22.84252106 -5.46296692 21.82038879 C-6.16741467 19.94589632 -6.88048984 18.07461415 -7.60380554 16.20732117 C-9.45356334 11.2510048 -10.55940178 7.29989045 -10 2 C-7.03688004 -1.64691687 -4.27404321 -1.45499343 0 0 Z " fill="#00314B" transform="translate(1517,547)"/>
<path d="M0 0 C2.10296884 1.57186043 2.90081531 2.45798418 3.37752342 5.06305695 C3.3786545 5.86019859 3.37978558 6.65734024 3.38095093 7.4786377 C3.3894104 8.395569 3.39786987 9.31250031 3.40658569 10.25721741 C3.400513 11.26094894 3.39444031 12.26468048 3.38818359 13.29882812 C3.39344055 14.35758652 3.39869751 15.41634491 3.40411377 16.50718689 C3.41734359 20.01535693 3.40856487 23.52307515 3.3984375 27.03125 C3.40045737 29.46358325 3.40336808 31.8959159 3.40713501 34.32824707 C3.41156242 39.42933917 3.40511375 44.53027383 3.39111328 49.63134766 C3.37402137 56.17887148 3.3838603 62.72602641 3.40183067 69.27353668 C3.41265714 74.2971679 3.40922736 79.32071127 3.4014473 84.34434509 C3.39944215 86.75894718 3.40191553 89.17355717 3.40888596 91.58815002 C3.41648156 94.95937308 3.4049222 98.32999383 3.38818359 101.70117188 C3.39425629 102.70490341 3.40032898 103.70863495 3.40658569 104.74278259 C3.39812622 105.6597139 3.38966675 106.5766452 3.38095093 107.5213623 C3.37981985 108.31850395 3.37868877 109.1156456 3.37752342 109.93694305 C2.90081531 112.54201582 2.10296884 113.42813957 0 115 C-3.12124489 115.39015561 -5.09975061 115.55877549 -7.8125 113.875 C-9.42228269 111.33323785 -9.67109009 108.9601892 -10 106 C-10.54527344 106.39832031 -11.09054688 106.79664063 -11.65234375 107.20703125 C-21.47700988 114.10948899 -29.91079775 116.22507506 -42 115 C-52.93198202 112.34197445 -62.4362351 106.13878591 -68.55078125 96.57421875 C-74.6442185 85.01646019 -75.5079843 73.50799886 -72.03125 60.953125 C-68.44693825 50.68895952 -61.56974428 42.81020009 -52 37.625 C-41.33281448 32.84169856 -30.87133647 32.98645427 -20 37 C-17.17831184 38.47581716 -14.58811954 40.15047118 -12 42 C-11.01 42.66 -10.02 43.32 -9 44 C-9.01571045 42.77369873 -9.0314209 41.54739746 -9.04760742 40.28393555 C-9.10186611 35.73859208 -9.13633529 31.1932773 -9.16479492 26.64770508 C-9.17989082 24.67955717 -9.20036948 22.71144294 -9.22631836 20.7434082 C-9.26266649 17.91609388 -9.27971814 15.0892239 -9.29296875 12.26171875 C-9.30845261 11.38037766 -9.32393646 10.49903656 -9.33988953 9.59098816 C-9.34011612 8.77036392 -9.34034271 7.94973969 -9.34057617 7.10424805 C-9.35056892 6.02169991 -9.35056892 6.02169991 -9.36076355 4.9172821 C-8.39004443 -0.24161604 -4.59179429 -0.57397429 0 0 Z M-54.9375 55.8125 C-61.07527693 63.60052828 -62.02726609 71.18783771 -61 81 C-59.28654067 88.66207285 -55.33582092 94.38344707 -49 99 C-42.18942162 102.69542594 -35.53054935 104.21765784 -28 102 C-20.04584167 98.57087397 -14.59908413 93.64287847 -10.97265625 85.76953125 C-7.72675974 77.0789051 -8.57282841 69.47774026 -12 61 C-15.45527972 54.13009091 -21.75835966 49.41388011 -29 47 C-39.55464552 45.87545634 -47.55680257 47.98401967 -54.9375 55.8125 Z " fill="#00314B" transform="translate(2302,512)"/>
<path d="M0 0 C0.83402344 -0.01224609 1.66804687 -0.02449219 2.52734375 -0.03710938 C7.66507683 -0.04920765 11.8845282 0.52403464 16.75 2.1875 C16.13379145 4.98137762 15.50750305 7.77230926 14.875 10.5625 C14.70097656 11.3565625 14.52695313 12.150625 14.34765625 12.96875 C14.17363281 13.72929688 13.99960938 14.48984375 13.8203125 15.2734375 C13.66320801 15.9751709 13.50610352 16.6769043 13.34423828 17.39990234 C12.75 19.1875 12.75 19.1875 10.75 21.1875 C8.80018973 20.96375128 6.84825756 20.73360149 4.91796875 20.37890625 C2.25914593 20.04162219 2.25914593 20.04162219 -2.25 21.1875 C-2.91 25.1475 -3.57 29.1075 -4.25 33.1875 C0.37 33.1875 4.99 33.1875 9.75 33.1875 C9.75 39.7875 9.75 46.3875 9.75 53.1875 C5.13 53.1875 0.51 53.1875 -4.25 53.1875 C-4.25 72.3275 -4.25 91.4675 -4.25 111.1875 C-12.5 111.1875 -20.75 111.1875 -29.25 111.1875 C-29.25 92.0475 -29.25 72.9075 -29.25 53.1875 C-32.55 53.1875 -35.85 53.1875 -39.25 53.1875 C-39.25 46.9175 -39.25 40.6475 -39.25 34.1875 C-36.03548731 32.58024365 -32.81387464 33.13001815 -29.25 33.1875 C-29.29640625 32.52105469 -29.3428125 31.85460937 -29.390625 31.16796875 C-29.72534523 22.62064847 -28.19160339 14.75426491 -23 7.75 C-16.18110034 1.39602531 -9.01710882 0.00684151 0 0 Z " fill="#00314B" transform="translate(1017.25,515.8125)"/>
<path d="M0 0 C0.99 0.66 1.98 1.32 3 2 C2.9175 1.0925 2.835 0.185 2.75 -0.75 C3 -4 3 -4 4.625 -6.4375 C7 -8 7 -8 10.125 -7.875 C13 -7 13 -7 15 -5 C15.26069641 -1.93238831 15.26069641 -1.93238831 15.2746582 2.06420898 C15.27976913 2.79119995 15.28488007 3.51819092 15.29014587 4.26721191 C15.30407695 6.67692231 15.30308247 9.08634781 15.30078125 11.49609375 C15.30466635 13.16756802 15.30900064 14.83904131 15.31376648 16.51051331 C15.32123631 20.0168884 15.32093199 23.52316283 15.31567383 27.02954102 C15.30987916 31.52681168 15.32680621 36.02367052 15.3500185 40.52087307 C15.36473845 43.9738049 15.36562991 47.42663716 15.36250877 50.8795948 C15.3630229 52.53782021 15.36827768 54.19605106 15.37832069 55.85424614 C15.39063401 58.17190303 15.38392477 60.48875287 15.37231445 62.80639648 C15.37294388 64.12606918 15.3735733 65.44574188 15.3742218 66.80540466 C15 70 15 70 13.66423035 71.92616272 C11.04891521 73.61368326 9.02610507 73.37826313 6 73 C4.1875 71.875 4.1875 71.875 3 70 C2.3125 66.8125 2.3125 66.8125 2 64 C1.46632813 64.39832031 0.93265625 64.79664063 0.3828125 65.20703125 C-9.14178961 71.97971545 -18.30493601 74.27914762 -30 73 C-40.93621335 70.27989592 -50.41868366 64.16624042 -56.55078125 54.57421875 C-62.64847547 43.00838576 -63.49084796 31.52217551 -60.0390625 18.95703125 C-56.58077175 9.11520383 -50.35378027 1.10189692 -41.125 -3.8125 C-26.89967918 -10.36476898 -12.76817233 -9.12442504 0 0 Z M-42.9375 13.8125 C-49.07527693 21.60052828 -50.02726609 29.18783771 -49 39 C-47.28654067 46.66207285 -43.33582092 52.38344707 -37 57 C-30.18942162 60.69542594 -23.53054935 62.21765784 -16 60 C-8.04584167 56.57087397 -2.59908413 51.64287847 1.02734375 43.76953125 C4.27324026 35.0789051 3.42717159 27.47774026 0 19 C-3.07821199 12.87979028 -8.02500719 9.18523767 -14 6 C-24.88373806 2.4372594 -35.22849571 5.61865267 -42.9375 13.8125 Z " fill="#00314B" transform="translate(1780,554)"/>
<path d="M0 0 C3.375 1 3.375 1 4.56005859 2.57324219 C5.69981575 5.96724642 5.73245096 9.28445009 5.7890625 12.828125 C5.80842865 13.57713074 5.8277948 14.32613647 5.8477478 15.09783936 C5.90735716 17.48177836 5.95385354 19.86576614 6 22.25 C6.03819701 23.86981231 6.07724975 25.48960468 6.1171875 27.109375 C6.21304313 31.07275406 6.29714246 35.03622819 6.375 39 C6.99060791 38.71995117 7.60621582 38.43990234 8.24047852 38.15136719 C9.04928467 37.78688477 9.85809082 37.42240234 10.69140625 37.046875 C11.49263916 36.68432617 12.29387207 36.32177734 13.11938477 35.94824219 C22.13531478 32.15801898 32.52366078 33.43487726 41.375 37 C49.04118358 41.12794501 53.47512695 47.10449495 56.55227661 55.109375 C58.04131484 60.34108617 57.92410974 65.53314805 57.87109375 70.9375 C57.87254898 72.13938965 57.87400421 73.3412793 57.87550354 74.57958984 C57.87385296 77.10077356 57.86238692 79.62196824 57.84155273 82.14306641 C57.81237662 86.01637954 57.82100618 89.88834095 57.83398438 93.76171875 C57.82775307 96.21615252 57.81936691 98.67058197 57.80859375 101.125 C57.81152939 102.28636475 57.81446503 103.44772949 57.81748962 104.64428711 C57.80480545 105.71300049 57.79212128 106.78171387 57.77905273 107.8828125 C57.77364975 108.82527832 57.76824677 109.76774414 57.76268005 110.73876953 C57.63474564 111.48497559 57.50681122 112.23118164 57.375 113 C53.90457297 115.31361802 52.45665827 115.51020728 48.375 115 C45.60990065 112.13780664 44.99986275 110.09968932 44.99023438 106.17480469 C44.98012329 105.2199115 44.97001221 104.26501831 44.95959473 103.28118896 C44.96261597 102.25511536 44.96563721 101.22904175 44.96875 100.171875 C44.95791382 99.10890198 44.94707764 98.04592896 44.93591309 96.95074463 C44.90163137 93.55043478 44.88606075 90.15045995 44.875 86.75 C44.86038938 82.28613798 44.82659014 77.82301906 44.78125 73.359375 C44.78427124 72.34139832 44.78729248 71.32342163 44.79040527 70.27459717 C44.7240318 63.92350188 44.47193243 57.40427689 39.95861816 52.4430542 C34.49139973 47.67688547 29.64426651 47.65285535 22.6796875 47.72265625 C18.18655906 48.09973913 14.89525341 49.16472201 11.375 52 C7.78726557 56.50766634 6.26516597 60.06657278 6.20141602 65.77514648 C6.18792618 66.74302597 6.17443634 67.71090546 6.16053772 68.70811462 C6.15009933 69.75189774 6.13966095 70.79568085 6.12890625 71.87109375 C6.09597451 74.07617594 6.06276276 76.28125397 6.02929688 78.48632812 C5.9818341 81.96684972 5.93738904 85.44735361 5.89819336 88.92797852 C5.85851841 92.28419439 5.80696939 95.64006662 5.75390625 98.99609375 C5.7454921 100.03785263 5.73707794 101.07961151 5.72840881 102.15293884 C5.71176682 103.12397049 5.69512482 104.09500214 5.67797852 105.09545898 C5.66767105 105.94800766 5.65736359 106.80055634 5.64674377 107.67893982 C5.34938168 110.21881514 4.73391541 111.84261141 3.375 114 C0.54616253 115.41441874 -1.49876745 115.31900332 -4.625 115 C-7.28183638 112.23146671 -8.00086456 110.27739272 -8.01268005 106.48376465 C-8.02258469 105.58373215 -8.03248932 104.68369965 -8.04269409 103.75639343 C-8.03819244 102.77652969 -8.0336908 101.79666595 -8.02905273 100.78710938 C-8.03591599 99.74931839 -8.04277924 98.7115274 -8.04985046 97.64228821 C-8.06816318 94.20930327 -8.06427481 90.77677333 -8.05859375 87.34375 C-8.06315307 84.96008149 -8.06845789 82.57641429 -8.07447815 80.19274902 C-8.08341782 75.19599061 -8.0809759 70.19939195 -8.07104492 65.20263672 C-8.05954853 58.79304348 -8.07977325 52.38400059 -8.10896206 45.97447968 C-8.12728891 41.05202725 -8.12703868 36.12970759 -8.12132454 31.20722961 C-8.12117093 28.84368619 -8.12724816 26.48013399 -8.13961601 24.11662292 C-8.15445907 20.81502518 -8.14389771 17.51445572 -8.12670898 14.21289062 C-8.13637695 13.23302689 -8.14604492 12.25316315 -8.15600586 11.24360657 C-8.08419365 4.67126387 -8.08419365 4.67126387 -5.82020569 1.36169434 C-3.625 0 -3.625 0 0 0 Z " fill="#00314B" transform="translate(1643.625,512)"/>
<path d="M0 0 C8.5890444 7.01900402 13.76254779 16.16264699 15.54296875 27.078125 C16.43817681 39.24951155 13.89626148 49.24691743 6.54296875 59.078125 C-0.5401439 66.96205741 -10.04940943 72.54083019 -20.7421875 73.31640625 C-33.91142747 73.57516071 -44.70926933 70.47301856 -54.4296875 61.1953125 C-62.67061824 52.2720117 -66.06602073 42.13570669 -65.76171875 30.03125 C-64.5743495 18.52290193 -59.77619365 8.55473242 -50.99609375 0.9453125 C-35.39428154 -10.52802017 -16.05959004 -11.03082952 0 0 Z M-44.26953125 12.390625 C-51.51476527 21.29191252 -53.52126474 28.52005435 -52.45703125 40.078125 C-49.90105146 48.94044745 -43.97064662 54.57056091 -36.08203125 58.953125 C-27.67572712 61.561978 -20.58515888 61.71579524 -12.45703125 58.078125 C-5.30109999 54.09270421 -0.05640011 47.87623159 2.54296875 40.078125 C3.20962553 31.57551879 3.06807671 24.45120301 -1.45703125 17.078125 C-1.99328125 16.19125 -2.52953125 15.304375 -3.08203125 14.390625 C-10.36138932 7.30282899 -18.05056744 4.65264256 -28.0234375 4.73046875 C-34.53585078 5.38985986 -39.29240756 8.2983233 -44.26953125 12.390625 Z " fill="#00314B" transform="translate(2143.45703125,553.921875)"/>
<path d="M0 0 C7.02835317 4.35217254 11.21482697 9.21517854 13.6171875 17.20703125 C15.25056679 25.29688151 14.07475827 33.3483438 9.71875 40.375 C8.54149986 42.04054139 7.29286082 43.65522579 6.03125 45.2578125 C6.57394531 45.8146875 7.11664062 46.3715625 7.67578125 46.9453125 C15.5700008 55.36581335 17.67284382 61.17315353 17.375 72.7890625 C16.51415781 81.47574276 12.68132331 88.59013638 6.03125 94.2578125 C-1.92432011 99.25490497 -10.13036217 101.69524796 -19.49609375 99.7265625 C-28.53962802 97.22429136 -34.38962721 92.74372409 -39.96875 85.2578125 C-42.7403986 80.17645673 -44.12533432 75.05143245 -43.96875 69.2578125 C-42.96875 66.6953125 -42.96875 66.6953125 -40.96875 65.2578125 C-37.46875 64.7578125 -37.46875 64.7578125 -33.96875 65.2578125 C-31.35254539 68.0110564 -30.51635479 70.4752248 -29.71875 74.1328125 C-28.22916207 79.49691371 -25.67542438 82.35892896 -20.96875 85.2578125 C-15.93917942 86.93433603 -10.63219185 87.33480828 -5.640625 85.31640625 C-1.6472928 82.95738223 1.35422785 80.69698877 3.03125 76.2578125 C4.47272028 70.13156379 4.52841447 65.42212708 1.2421875 59.94140625 C-2.84896764 54.25338087 -7.73827456 53.34928084 -14.32421875 51.96875 C-16.96875 51.2578125 -16.96875 51.2578125 -18.96875 49.2578125 C-19.26953125 47.3828125 -19.26953125 47.3828125 -19.28125 45.2578125 C-19.29800781 44.5565625 -19.31476563 43.8553125 -19.33203125 43.1328125 C-19.21214844 42.5140625 -19.09226562 41.8953125 -18.96875 41.2578125 C-16.10909355 39.35137487 -14.3545699 38.753084 -11.09375 37.9453125 C-6.50347168 36.5936562 -3.82160511 35.26964 -0.96875 31.2578125 C0.99670701 27.01752098 1.43485017 23.49432017 0.03125 19.0078125 C-1.76249256 15.00336091 -3.97579626 13.1775018 -7.96875 11.2578125 C-13.58988587 9.72477544 -16.91433681 10.3968239 -21.96875 13.2578125 C-25.67111414 16.75448975 -26.8633785 20.47709176 -28.16015625 25.26953125 C-28.96875 27.2578125 -28.96875 27.2578125 -31.96875 29.2578125 C-37.41319444 28.81336806 -37.41319444 28.81336806 -39.96875 26.2578125 C-41.16902054 19.65632451 -39.4244995 13.8669964 -35.96875 8.2578125 C-27.59586511 -3.00227407 -12.51894781 -6.48626644 0 0 Z " fill="#00314B" transform="translate(1921.96875,529.7421875)"/>
<path d="M0 0 C-1.32 6.93 -2.64 13.86 -4 21 C-7.35776336 21.83944084 -9.08369267 22.02614627 -12.375 21.8125 C-17.01729205 21.76676313 -19.42284167 22.92198004 -23 26 C-26.45327651 29.9199355 -28.10603602 32.25845458 -28.20532227 37.44970703 C-28.22526749 38.37051056 -28.24521271 39.29131409 -28.26576233 40.24002075 C-28.29083107 41.73382767 -28.29083107 41.73382767 -28.31640625 43.2578125 C-28.33718735 44.27600067 -28.35796844 45.29418884 -28.37937927 46.3432312 C-28.44489466 49.60375055 -28.50376902 52.86435206 -28.5625 56.125 C-28.60568332 58.33203983 -28.64929755 60.53907128 -28.69335938 62.74609375 C-28.80139096 68.16397942 -28.90044976 73.58192521 -29 79 C-37.25 79 -45.5 79 -54 79 C-54 53.26 -54 27.52 -54 1 C-47.4 1 -40.8 1 -34 1 C-33.34 4.3 -32.68 7.6 -32 11 C-31.278125 10.2575 -30.55625 9.515 -29.8125 8.75 C-21.28120596 0.40829027 -11.9974405 -3.99914683 0 0 Z " fill="#00314B" transform="translate(1092,548)"/>
<path d="M0 0 C2.00525558 1.77208633 2.92069375 3.13447505 3.84765625 5.6328125 C3.52863048 8.98258313 3.25585986 10.22460889 0.84765625 12.6328125 C-4.35583553 13.50006113 -7.19677887 11.6789728 -11.3203125 8.82421875 C-15.86545154 5.86842471 -20.932359 6.17748673 -26.15234375 6.6328125 C-30.24217725 8.12002468 -33.16584298 9.65981097 -35.15234375 13.6328125 C-35.54129289 16.12473861 -35.54129289 16.12473861 -34.15234375 18.6328125 C-29.64713975 23.66888449 -23.28321761 25.98284853 -17.21484375 28.5703125 C-8.11346671 32.45742638 0.02659994 36.59333191 4.84765625 45.6328125 C6.71184461 50.44863242 6.26633341 55.37678102 4.66015625 60.1953125 C0.69201519 67.72109726 -3.99876542 71.66890452 -11.98828125 74.21875 C-21.28807039 75.99813204 -30.8010953 75.15695339 -39.15234375 70.6328125 C-43.1891973 67.72574939 -46.39013256 64.77612929 -49.15234375 60.6328125 C-49.69787287 54.52288633 -49.69787287 54.52288633 -47.96484375 51.6953125 C-45.36307227 50.17013611 -44.12394283 49.99604127 -41.15234375 50.6328125 C-39.87918646 52.06919508 -38.61298959 53.515693 -37.4453125 55.0390625 C-33.40050648 60.02480526 -28.21740972 61.54757868 -22.12109375 62.52734375 C-17.16685981 62.70334943 -12.77619249 61.29632481 -8.15234375 59.6328125 C-7.84678149 58.24416816 -7.58433567 56.84599986 -7.33984375 55.4453125 C-7.18902344 54.66800781 -7.03820313 53.89070312 -6.8828125 53.08984375 C-7.20043688 50.1943983 -8.11093662 48.88487755 -10.26000977 46.94750977 C-15.6354643 43.21291775 -21.94848652 40.85460157 -27.89453125 38.18164062 C-35.33290164 34.75024952 -41.76352825 31.63985786 -46.08984375 24.3828125 C-47.74932046 18.52583589 -47.98365605 13.28262046 -46.15234375 7.4453125 C-41.12814217 0.38002903 -34.99092613 -3.72040785 -26.71484375 -6.0546875 C-16.50694112 -7.29955367 -8.53641901 -5.75116766 0 0 Z " fill="#00314B" transform="translate(2373.15234375,552.3671875)"/>
<path d="M0 0 C2.49118953 3.7367843 2.2065226 5.74451819 2.125 10.1875 C2.10695313 11.45980469 2.08890625 12.73210938 2.0703125 14.04296875 C2.04710937 15.01878906 2.02390625 15.99460937 2 17 C3.03640625 16.95359375 4.0728125 16.9071875 5.140625 16.859375 C6.51038779 16.82184725 7.88018182 16.78544816 9.25 16.75 C10.27287109 16.69972656 10.27287109 16.69972656 11.31640625 16.6484375 C14.76314817 16.58151047 16.65716831 16.75350563 19.48828125 18.7890625 C21 21 21 21 20.9375 24.625 C20 28 20 28 17 30 C14.39754502 30.14221065 11.90882316 30.18802932 9.3125 30.125 C8.61060547 30.11597656 7.90871094 30.10695313 7.18554688 30.09765625 C5.45688475 30.07413704 3.72839855 30.03826713 2 30 C2.09241767 36.60222405 2.1997428 43.20408573 2.31738281 49.8059082 C2.35564079 52.05129513 2.39049921 54.29674269 2.421875 56.54223633 C2.46759417 59.77186737 2.52557807 63.00108222 2.5859375 66.23046875 C2.60326431 67.73386055 2.60326431 67.73386055 2.62094116 69.2676239 C2.64081085 70.20822159 2.66068054 71.14881927 2.68115234 72.11791992 C2.69447601 72.94176682 2.70779968 73.76561371 2.7215271 74.61442566 C3.04704628 77.40302804 3.72251247 79.49983601 5 82 C8.7392934 84.01921844 12.25538086 85.0992797 16.375 86.0625 C18.169375 86.5265625 18.169375 86.5265625 20 87 C21.39935013 89.79870027 21.25265405 91.90498792 21 95 C19.39431098 97.19050866 18.49393505 97.91051265 15.80078125 98.3984375 C7.69346201 98.32207343 0.91216405 96.91216405 -5 91 C-8.62657057 85.75617499 -10.12947249 81.27110753 -10.11352539 74.95605469 C-10.11344986 73.95531921 -10.11337433 72.95458374 -10.11329651 71.92352295 C-10.10813522 70.85047913 -10.10297394 69.7774353 -10.09765625 68.671875 C-10.0962413 67.56773254 -10.09482635 66.46359009 -10.09336853 65.32598877 C-10.08777258 61.80063158 -10.07522079 58.27533798 -10.0625 54.75 C-10.05748448 52.35937592 -10.05292166 49.96875084 -10.04882812 47.578125 C-10.03780447 41.71872832 -10.02107033 35.8593687 -10 30 C-10.7621582 30.01812744 -11.52431641 30.03625488 -12.30957031 30.05493164 C-13.30569336 30.06903076 -14.30181641 30.08312988 -15.328125 30.09765625 C-16.3171582 30.11578369 -17.30619141 30.13391113 -18.32519531 30.15258789 C-21 30 -21 30 -23.75 28.4375 C-25.54963144 24.92821869 -25.03774589 22.73588519 -24 19 C-20.57905758 16.71937172 -19.31812778 16.78074993 -15.3125 16.875 C-13.82169922 16.90207031 -13.82169922 16.90207031 -12.30078125 16.9296875 C-11.54152344 16.95289063 -10.78226563 16.97609375 -10 17 C-10.03480469 15.95199219 -10.06960938 14.90398438 -10.10546875 13.82421875 C-10.13360937 12.44532853 -10.16090924 11.06642098 -10.1875 9.6875 C-10.21263672 8.99720703 -10.23777344 8.30691406 -10.26367188 7.59570312 C-10.33723058 2.52015262 -10.33723058 2.52015262 -8.7109375 0.01171875 C-5.72953451 -1.75125699 -3.21174927 -0.81753618 0 0 Z " fill="#00314B" transform="translate(1839,529)"/>
<path d="M0 0 C2.875 1 2.875 1 4.25 3.5625 C4.45625 4.366875 4.6625 5.17125 4.875 6 C6.298125 5.071875 6.298125 5.071875 7.75 4.125 C14.02854824 0.54088947 21.7154295 -0.71595705 28.875 0 C31.3125 1.0625 31.3125 1.0625 32.875 3 C33.375 6.5 33.375 6.5 32.875 10 C29.75081055 13.17650841 26.82417374 13.48895517 22.5 13.9375 C17.11813167 14.67961861 13.8360522 15.24742423 9.875 19 C6.7049664 24.13764066 5.76381973 28.96183543 5.71728516 34.92626953 C5.70702301 35.8772049 5.69676086 36.82814026 5.68618774 37.80789185 C5.67888641 38.82261566 5.67158508 39.83733948 5.6640625 40.8828125 C5.63601379 43.04037243 5.60734949 45.19792443 5.578125 47.35546875 C5.53674035 50.7504877 5.49984286 54.14535527 5.47363281 57.54052734 C5.44612059 60.82159725 5.40027421 64.10199821 5.3515625 67.3828125 C5.34830963 68.40158478 5.34505676 69.42035706 5.34170532 70.47000122 C5.32513885 71.41463226 5.30857239 72.35926331 5.29150391 73.33251953 C5.28341705 74.16349152 5.2753302 74.9944635 5.26699829 75.85061646 C4.78208077 78.50948961 4.02833149 79.40364028 1.875 81 C-1.15059539 81.37819942 -3.1736642 81.61514539 -5.7872467 79.9251709 C-7.84540717 76.96325659 -7.51438976 74.39549546 -7.52905273 70.82226562 C-7.53591599 70.09512863 -7.54277924 69.36799164 -7.54985046 68.61882019 C-7.56815731 66.21443171 -7.56427606 63.81069324 -7.55859375 61.40625 C-7.56315338 59.73620389 -7.5684583 58.06615965 -7.57447815 56.39611816 C-7.58341661 52.89567442 -7.58097748 49.39545873 -7.57104492 45.89501953 C-7.55954817 41.40548829 -7.57977324 36.91674275 -7.60896206 32.42731476 C-7.62729201 28.97864774 -7.62703816 25.53017017 -7.62132454 22.08146667 C-7.62117096 20.42602943 -7.62724529 18.77057963 -7.63961601 17.1151886 C-7.65446631 14.80219953 -7.64389528 12.49067699 -7.62670898 10.17773438 C-7.62654282 8.86107788 -7.62637665 7.54442139 -7.62620544 6.18786621 C-7.125 3 -7.125 3 -5.28895569 1.0513916 C-3.125 0 -3.125 0 0 0 Z " fill="#00314B" transform="translate(2185.125,546)"/>
<path d="M0 0 C2.375 0.3125 2.375 0.3125 3.375 1.3125 C2.93079817 7.86412443 1.16108973 13.67083605 -0.93359375 19.8671875 C-1.26037613 20.84994659 -1.58715851 21.83270569 -1.92384338 22.84524536 C-2.61201597 24.90878839 -3.30388785 26.97110105 -3.99926758 29.03222656 C-5.06510747 32.195238 -6.11633419 35.36284431 -7.16601562 38.53125 C-7.83768024 40.53935083 -8.51017697 42.54717358 -9.18359375 44.5546875 C-9.49824081 45.50358856 -9.81288788 46.45248962 -10.1370697 47.43014526 C-10.58246849 48.74258713 -10.58246849 48.74258713 -11.03686523 50.08154297 C-11.42538918 51.23781693 -11.42538918 51.23781693 -11.82176208 52.41744995 C-12.625 54.3125 -12.625 54.3125 -14.625 56.3125 C-19.18055556 55.75694444 -19.18055556 55.75694444 -20.625 54.3125 C-20.17482194 48.01713866 -18.57988039 42.44334297 -16.5703125 36.484375 C-16.26809784 35.57294739 -15.96588318 34.66151978 -15.6545105 33.72247314 C-15.01766217 31.80854362 -14.37706675 29.89585723 -13.73291016 27.984375 C-12.74946816 25.06091903 -11.78221886 22.13244593 -10.81640625 19.203125 C-10.19367045 17.33822012 -9.57000459 15.47362549 -8.9453125 13.609375 C-8.6577005 12.73641785 -8.3700885 11.86346069 -8.07376099 10.96405029 C-4.53168747 0.5394866 -4.53168747 0.5394866 0 0 Z " fill="#F4F6F7" transform="translate(1419.625,558.6875)"/>
<path d="M0 0 C2.4375 0.1875 2.4375 0.1875 3.4375 1.1875 C3.01742857 7.90323599 1.53691816 13.76383521 -0.6171875 20.11328125 C-0.91940216 21.02329391 -1.22161682 21.93330658 -1.5329895 22.87089539 C-2.16915063 24.77908165 -2.80974892 26.68579388 -3.45458984 28.59106445 C-4.4392748 31.50525255 -5.40608548 34.42494802 -6.37109375 37.34570312 C-6.99373828 39.20608205 -7.61740079 41.06612065 -8.2421875 42.92578125 C-8.5297995 43.79560135 -8.8174115 44.66542145 -9.11373901 45.56159973 C-10.47849049 49.56224438 -11.66486523 53.00141537 -14.5625 56.1875 C-16.2125 55.8575 -17.8625 55.5275 -19.5625 55.1875 C-20.58422554 51.34564181 -20.49938798 49.00086532 -19.23901367 45.24536133 C-18.92506149 44.29119827 -18.61110931 43.33703522 -18.28764343 42.35395813 C-17.93877579 41.33609726 -17.58990814 40.31823639 -17.23046875 39.26953125 C-16.87866043 38.21593918 -16.52685211 37.16234711 -16.16438293 36.076828 C-15.41922435 33.8534246 -14.66824079 31.6319661 -13.91186523 29.41235352 C-12.75225233 26.00661502 -11.61201828 22.59485063 -10.47460938 19.18164062 C-9.74852834 17.02305623 -9.02135208 14.86483986 -8.29296875 12.70703125 C-7.77877632 11.17113091 -7.77877632 11.17113091 -7.25419617 9.60420227 C-6.76908318 8.18714241 -6.76908318 8.18714241 -6.27416992 6.74145508 C-5.99135666 5.90826248 -5.7085434 5.07506989 -5.41716003 4.21662903 C-4.14502567 1.19633479 -3.3175445 0.24274716 0 0 Z " fill="#F6F7F8" transform="translate(1395.5625,558.8125)"/>
<path d="M0 0 C2.375 0.3125 2.375 0.3125 3.375 1.3125 C2.93079817 7.86412443 1.16108973 13.67083605 -0.93359375 19.8671875 C-1.26037613 20.84994659 -1.58715851 21.83270569 -1.92384338 22.84524536 C-2.61201597 24.90878839 -3.30388785 26.97110105 -3.99926758 29.03222656 C-5.06510747 32.195238 -6.11633419 35.36284431 -7.16601562 38.53125 C-7.83768024 40.53935083 -8.51017697 42.54717358 -9.18359375 44.5546875 C-9.49824081 45.50358856 -9.81288788 46.45248962 -10.1370697 47.43014526 C-10.58246849 48.74258713 -10.58246849 48.74258713 -11.03686523 50.08154297 C-11.42538918 51.23781693 -11.42538918 51.23781693 -11.82176208 52.41744995 C-12.625 54.3125 -12.625 54.3125 -14.625 56.3125 C-17.25 55.9375 -17.25 55.9375 -19.625 55.3125 C-21.39735534 49.27924242 -19.51297072 44.73494617 -17.546875 39.0234375 C-17.2196344 38.04259186 -16.8923938 37.06174622 -16.55523682 36.05117798 C-15.86209319 33.98312732 -15.16237761 31.91726926 -14.45654297 29.85351562 C-13.37810399 26.69658635 -12.32226656 23.53276896 -11.26953125 20.3671875 C-10.59246918 18.35632477 -9.9141267 16.34589262 -9.234375 14.3359375 C-8.76073517 12.9186586 -8.76073517 12.9186586 -8.27752686 11.4727478 C-7.97421448 10.59148224 -7.6709021 9.71021667 -7.35839844 8.80224609 C-7.09557068 8.0298056 -6.83274292 7.25736511 -6.56195068 6.46151733 C-3.94980079 0.47021438 -3.94980079 0.47021438 0 0 Z " fill="#F6F7F8" transform="translate(1443.625,558.6875)"/>
</svg>
