<?xml version="1.0" encoding="UTF-8"?>
<svg id="artwork" xmlns="http://www.w3.org/2000/svg" width="128" height="128" viewBox="0 0 128 128">
  <path fill="#00C384" d="M0,0H128V128H0V0Z" />
  <path fill="#fff"
    d="M80.8439,52.0921l11.7525,-36.9027h-4.2645c-5.07,0 -9.9061,2.1445 -13.3049,5.904l-46.9769,51.8891c-1.4049,1.5737 -0.2838,4.0703 1.8235,4.0623l18.0807,-0.4234 -12.0158,35.8134h5.4807c5.307,0 10.3612,-2.273 13.8788,-6.2489l44.6746,-50.4502c1.3763,-1.5761 0.2529,-4.0409 -1.8393,-4.0386l-17.2911,0.0182ZM52.0342,94.3621l9.4772,-26.3972 -15.4549,0.0365 29.2942,-33.3589 -10.3081,26.4654 16.0178,-0.0182 -29.023,33.2693Z" />
</svg>